<?xml version="1.0" standalone="no"?>
<!DOCTYPE svg PUBLIC "-//W3C//DTD SVG 1.1//EN" "http://www.w3.org/Graphics/SVG/1.1/DTD/svg11.dtd" >
<svg xmlns="http://www.w3.org/2000/svg">
<metadata>Generated by IcoMoon</metadata>
<defs>
<font id="icomoon" horiz-adv-x="1024">
<font-face units-per-em="1024" ascent="960" descent="-64" />
<missing-glyph horiz-adv-x="1024" />
<glyph unicode="&#x20;" horiz-adv-x="512" d="" />
<glyph unicode="&#xe900;" d="M921.6 823.096h-819.2c-56.32 0-102.4-46.080-102.4-102.4v-545.392c0-56.32 46.080-102.4 102.4-102.4h819.2c56.32 0 102.4 46.080 102.4 102.4v545.392c0 56.32-46.080 102.4-102.4 102.4zM376.88 240.040v417.744l391.248-208.88-391.248-208.864z" />
<glyph unicode="&#xe901;" d="M376.88 240.040l391.232 208.864-391.232 208.88z" />
<glyph unicode="&#xe902;" glyph-name="arrows-1" d="M955.212 703.89c-68.35 118.384-178.71 203.070-310.754 238.45-132.042 35.384-269.958 17.226-388.348-51.128-118.388-68.352-203.070-178.712-238.45-310.756-35.38-132.042-17.222-269.962 51.128-388.346 68.348-118.384 178.712-203.070 310.754-238.45 44.092-11.816 88.834-17.66 133.292-17.66 88.678 0 176.202 23.258 255.058 68.786 118.384 68.35 203.070 178.71 238.45 310.754 35.382 132.046 17.22 269.962-51.13 388.35zM954.858 329.334c-31.696-118.292-107.56-217.162-213.62-278.394-106.056-61.234-229.612-77.498-347.904-45.806-118.294 31.696-217.162 107.56-278.396 213.62-61.232 106.056-77.498 229.614-45.8 347.908 31.698 118.292 107.562 217.158 213.62 278.394 70.65 40.79 149.048 61.624 228.498 61.624 39.82 0 79.918-5.236 119.404-15.818 118.292-31.696 217.162-107.56 278.394-213.62 61.234-106.058 77.502-229.614 45.804-347.908zM757.556 496.296l-329.052 189.98c-17.462 10.082-38.31 10.078-55.772 0.002-17.462-10.080-27.888-28.138-27.888-48.3v-379.96c0-20.162 10.424-38.218 27.888-48.3 8.73-5.042 18.304-7.56 27.882-7.56 9.58 0 19.158 2.524 27.888 7.562l329.056 189.978c17.46 10.084 27.882 28.14 27.882 48.302 0 20.16-10.424 38.216-27.884 48.296zM730.904 445.852l-329.054-189.978c-0.402-0.234-1.24-0.716-2.472 0-1.236 0.714-1.236 1.678-1.236 2.142v379.96c0 0.464 0 1.428 1.236 2.142 0.484 0.28 0.906 0.376 1.266 0.376 0.56 0 0.964-0.234 1.21-0.376l329.052-189.98c0.402-0.232 1.236-0.714 1.236-2.142s-0.838-1.912-1.238-2.144zM826.606 691.12c-63.378 81.876-158.652 136.884-261.396 150.922-14.566 1.994-28.018-8.212-30.012-22.798-1.99-14.582 8.216-28.018 22.798-30.012 89.024-12.162 171.566-59.818 226.464-130.738 5.252-6.784 13.13-10.336 21.092-10.336 5.698 0 11.44 1.818 16.292 5.578 11.638 9.008 13.77 25.746 4.762 37.384z" />
<glyph unicode="&#xe903;" glyph-name="arrows-2" d="M1016.032 735.432c-2.45 5.914-8.218 9.768-14.618 9.768h-198.978v198.978c0 6.4-3.854 12.168-9.768 14.618-5.906 2.448-12.716 1.098-17.242-3.43l-113.362-113.362c-0.004-0.004-0.008-0.006-0.010-0.010-0.004-0.004-0.006-0.008-0.010-0.010l-107.384-107.384c-2.968-2.966-4.634-6.992-4.634-11.188v-18.598c-46.17 18.146-94.888 27.356-145.176 27.356-219.504 0-398.084-178.58-398.084-398.084s178.576-398.086 398.082-398.086 398.084 178.58 398.084 398.084c0 55.414-11.082 108.678-32.934 158.704h10.648c4.196 0 8.22 1.666 11.188 4.634l107.398 107.398c0.002 0.002 0.004 0.004 0.004 0.004l113.368 113.368c4.522 4.524 5.878 11.328 3.428 17.24zM689.068 824.258l81.724 81.724v-170.050l-81.724-81.724v170.050zM581.668 680.854v36.004l75.758 75.758v-170.050l-74.45-74.45c-0.436 0.364-0.872 0.73-1.31 1.090v131.648zM550.026 533.688v-18.526h-0.002l-39.954-39.954c-30.336 22.668-67.162 35.024-105.22 35.024-97.128 0-176.148-79.020-176.148-176.148s79.020-176.148 176.148-176.148 176.148 79.020 176.148 176.148c0 44.614-17.084 87.474-47.336 119.964l38.74 38.74h21.478c37.402-44.48 57.932-100.556 57.932-158.704 0-136.176-110.788-246.96-246.96-246.96-136.176 0-246.96 110.788-246.96 246.96s110.788 246.96 246.96 246.96c52.742 0.002 102.76-16.372 145.174-47.356zM399.554 342.318c3.088-3.088 7.138-4.634 11.186-4.634s8.098 1.544 11.186 4.634l35.574 35.574c10.214-12.214 15.906-27.582 15.906-43.806 0-37.804-30.758-68.56-68.56-68.56-37.806 0-68.56 30.758-68.56 68.56s30.756 68.56 68.56 68.56c9.472 0 18.612-1.91 27.078-5.58l-32.374-32.374c-6.174-6.178-6.174-16.198 0.004-22.374zM455.386 420.526c-15.274 8.93-32.778 13.762-50.538 13.762-55.254 0-100.204-44.95-100.204-100.204 0-55.252 44.95-100.204 100.204-100.204 55.252 0 100.204 44.952 100.204 100.204 0 24.718-8.992 48.078-25.1 66.256l31.316 31.316c24.35-26.56 38.084-61.366 38.084-97.572 0-79.68-64.824-144.504-144.504-144.504s-144.504 64.824-144.504 144.504c0 79.68 64.824 144.504 144.504 144.504 29.66 0 58.406-9.176 82.55-26.052l-32.012-32.010zM771.288 334.086c0-202.058-164.384-366.444-366.442-366.444s-366.44 164.386-366.44 366.442 164.384 366.442 366.442 366.442c50.514 0 99.3-10.058 145.176-29.912v-98.85c-43.61 26.83-93.216 40.926-145.176 40.926-153.624 0-278.604-124.982-278.604-278.604s124.982-278.604 278.604-278.604c153.624 0 278.604 124.982 278.604 278.604 0 57.024-17.494 112.274-49.768 158.704h101.504c23.95-49.658 36.1-102.996 36.1-158.704zM774.094 524.432h-166.004c-0.652 0.696-1.318 1.38-1.976 2.070l73.688 73.688h170.050l-75.758-75.758zM881.494 631.83h-170.050l81.724 81.724h170.050l-81.724-81.724z" />
<glyph unicode="&#xe904;" glyph-name="book" d="M1005.914 800.852l-90.974 14.020v64.676c0 10.707-7.936 19.755-18.551 21.152l-198.758 26.138c-3.874 0.512-7.817-0.053-11.392-1.632l-174.355-76.911-181.841 78.059c-3.593 1.542-7.539 2.065-11.42 1.517l-191.236-27.2c-10.515-1.495-18.33-10.498-18.33-21.12v-66.952l-90.453-11.667c-10.639-1.376-18.605-10.436-18.605-21.16v-718.484c0-6.178 2.679-12.055 7.345-16.107s10.859-5.882 16.977-5.018l250.5 35.43 228.213-105.692c0.002 0 0.006-0.002 0.009-0.004 0.009-0.004 0.019-0.006 0.028-0.011 0.853-0.393 1.724-0.708 2.596-0.981 0.237-0.073 0.476-0.132 0.715-0.196 0.698-0.192 1.397-0.348 2.101-0.465 0.243-0.043 0.484-0.085 0.73-0.119 0.926-0.122 1.852-0.205 2.775-0.205 0.004 0 0.006 0 0.011 0s0.006 0 0.011 0c0.887 0 1.781 0.077 2.673 0.19 0.224 0.030 0.444 0.064 0.668 0.1 0.732 0.117 1.463 0.273 2.189 0.469 0.164 0.045 0.331 0.079 0.495 0.126 0.768 0.226 1.53 0.489 2.285 0.809l247.673 104.883 231.547-34.315c6.133-0.907 12.365 0.896 17.062 4.949s7.398 9.95 7.398 16.154v718.486c-0.002 10.526-7.682 19.479-18.086 21.082zM533.332 811.119l164.659 72.636 174.282-22.918v-665.582l-170.948 23.313c-3.87 0.531-7.812-0.017-11.396-1.577l-156.597-68.153v662.281zM151.724 861.033l166.982 23.75 171.959-73.813v-662.411l-162.837 69.348c-2.654 1.131-5.498 1.707-8.358 1.707-1.022 0-2.048-0.075-3.068-0.222l-164.678-23.919c0-0.002 0 665.56 0 665.56zM981.331 86.011l-213.015 31.569c-3.872 0.576-7.836 0.068-11.445-1.459l-244.486-103.533-225.35 104.367c-3.731 1.728-7.881 2.342-11.953 1.764l-232.416-32.87v675.16l66.391 8.563v-598.759c0-6.193 2.692-12.081 7.375-16.132 4.683-4.053 10.895-5.875 17.024-4.979l183.157 26.605 187.023-79.65c0.721-0.307 1.455-0.565 2.195-0.789 0.149-0.045 0.303-0.075 0.452-0.115 0.749-0.209 1.506-0.371 2.266-0.497 0.241-0.041 0.482-0.079 0.723-0.109 0.905-0.117 1.813-0.196 2.72-0.196h0.006c0.917 0 1.833 0.081 2.746 0.198 0.247 0.032 0.491 0.073 0.736 0.113 0.749 0.124 1.489 0.286 2.225 0.491 0.175 0.047 0.35 0.083 0.525 0.137 0.77 0.235 1.534 0.506 2.283 0.832l180.966 78.763 189.245-25.809c6.099-0.832 12.269 1.013 16.911 5.067 4.64 4.051 7.305 9.911 7.305 16.072v600.888l66.391-10.231v-675.459zM456.052 728.822l-120.079 84.947c-5.51 3.9-12.542 4.958-18.959 2.859l-127.554-41.766c-11.198-3.667-17.303-15.716-13.636-26.912 3.667-11.198 15.716-17.306 26.912-13.636l117.357 38.428 111.317-78.75c3.742-2.647 8.043-3.919 12.303-3.919 6.69 0 13.278 3.138 17.434 9.013 6.805 9.619 4.525 22.933-5.094 29.736zM456.052 619.792l-120.079 84.949c-5.51 3.9-12.542 4.958-18.959 2.859l-127.554-41.771c-11.198-3.667-17.303-15.716-13.636-26.912 3.667-11.198 15.716-17.306 26.912-13.636l117.357 38.428 111.317-78.752c3.742-2.647 8.043-3.919 12.303-3.919 6.69 0 13.278 3.138 17.434 9.015 6.805 9.621 4.525 22.933-5.094 29.739zM456.052 510.757l-120.079 84.947c-5.513 3.9-12.544 4.958-18.961 2.859l-127.554-41.775c-11.196-3.669-17.301-15.716-13.634-26.914s15.723-17.299 26.914-13.634l117.354 38.436 111.317-78.75c3.742-2.647 8.043-3.919 12.303-3.919 6.69 0 13.278 3.138 17.434 9.013 6.805 9.619 4.525 22.931-5.094 29.736zM456.052 401.721l-120.079 84.949c-5.513 3.9-12.546 4.96-18.961 2.859l-127.554-41.777c-11.196-3.667-17.301-15.716-13.634-26.914 3.669-11.198 15.723-17.297 26.914-13.634l117.354 38.436 111.317-78.75c3.742-2.647 8.043-3.919 12.303-3.919 6.69 0 13.278 3.138 17.434 9.013 6.805 9.619 4.525 22.931-5.094 29.736zM456.052 292.688l-120.079 84.947c-5.513 3.9-12.544 4.958-18.961 2.859l-127.554-41.775c-11.196-3.667-17.301-15.716-13.634-26.914s15.723-17.299 26.914-13.634l117.354 38.436 111.317-78.75c3.742-2.647 8.043-3.919 12.303-3.919 6.69 0 13.278 3.138 17.434 9.013 6.805 9.619 4.525 22.931-5.094 29.736zM834.584 774.863l-127.603 41.766c-6.415 2.099-13.446 1.043-18.957-2.859l-120.079-84.947c-9.619-6.805-11.9-20.117-5.094-29.736 4.156-5.877 10.743-9.015 17.434-9.015 4.258 0 8.559 1.274 12.303 3.921l111.319 78.75 117.403-38.43c11.196-3.661 23.247 2.441 26.912 13.638s-2.441 23.247-13.638 26.912zM834.584 665.829l-127.603 41.768c-6.415 2.099-13.446 1.041-18.957-2.859l-120.079-84.949c-9.619-6.805-11.9-20.117-5.094-29.736 4.156-5.877 10.743-9.015 17.434-9.015 4.258 0 8.559 1.274 12.303 3.919l111.319 78.752 117.403-38.43c11.196-3.661 23.247 2.441 26.912 13.638s-2.441 23.247-13.638 26.912zM834.586 556.79l-127.603 41.773c-6.415 2.101-13.449 1.043-18.959-2.859l-120.079-84.947c-9.619-6.803-11.9-20.117-5.094-29.736 4.156-5.877 10.743-9.015 17.434-9.015 4.258 0 8.559 1.271 12.305 3.921l111.319 78.75 117.403-38.436c11.191-3.661 23.245 2.441 26.912 13.638 3.665 11.196-2.441 23.247-13.638 26.912zM834.586 447.751l-127.603 41.777c-6.411 2.101-13.449 1.041-18.959-2.859l-120.079-84.949c-9.619-6.805-11.9-20.117-5.094-29.736 4.156-5.877 10.743-9.015 17.434-9.015 4.258 0 8.559 1.274 12.303 3.919l111.319 78.752 117.403-38.436c11.198-3.667 23.247 2.438 26.912 13.636 3.667 11.198-2.438 23.247-13.636 26.912zM834.586 338.721l-127.603 41.775c-6.415 2.101-13.449 1.043-18.959-2.859l-120.079-84.947c-9.619-6.803-11.9-20.117-5.094-29.736 4.156-5.877 10.743-9.015 17.434-9.015 4.258 0 8.559 1.271 12.305 3.919l111.319 78.75 117.403-38.436c11.191-3.661 23.245 2.441 26.912 13.638 3.665 11.196-2.441 23.245-13.638 26.912z" />
<glyph unicode="&#xe905;" glyph-name="box" d="M1019.397 689.963l-102.429 139.429c-4.181 4.181-10.034 7.316-15.887 8.153l-384.632 120.407c-4.39 2.090-8.78 2.090-13.169 0l-383.169-120.825c-2.090-0.418-11.915-7.525-18.814-15.678l-96.576-131.486c-4.39-6.48-11.079-22.785 8.78-34.91l86.96-35.746v-502.112c0-8.78 4.39-15.26 13.169-19.65l387.559-158.87c7.943-2.927 12.124-2.927 19.65 0l387.559 158.87c8.78 2.090 13.169 10.87 13.169 19.65v501.276l89.26 36.582c19.023 9.825 13.169 28.429 8.571 34.91zM56.98 685.573l73.582 101.802 347.632-142.565-75.045-103.056-346.169 143.819zM488.228-9.274l-344.079 141.729v469.084l256.909-105.565c12.751-3.972 20.486-0.418 26.13 6.48l61.039 82.989v-594.717zM512.268 680.556l-323.384 132.322 321.084 101.384 324.429-101.593-322.13-132.113zM877.877 132.455l-344.079-141.52v597.643l63.13-85.915c4.39-6.48 13.588-10.661 26.13-6.48l254.819 104.52v-468.248zM623.058 541.754l-76.299 104.52 346.169 141.52 76.299-104.52-346.169-141.52z" />
<glyph unicode="&#xe906;" glyph-name="business" d="M746.538 89.294h-12.7c-106.030 175.31-107.958 187.582-84.716 391.56 20.932 4.748 36.61 23.488 36.61 45.836v49.054c0 25.922-21.090 47.010-47.010 47.010h-14.778l29.666 74.166c2.518 6.298 1.75 13.432-2.052 19.050-3.802 5.614-10.142 8.98-16.926 8.98h-61.318v45.988h40.878c11.288 0 20.44 9.152 20.44 20.44v81.756c0 11.286-9.15 20.44-20.44 20.44h-40.878v45.986c0 11.286-9.15 20.44-20.44 20.44h-81.754c-11.288 0-20.44-9.152-20.44-20.44v-45.988h-40.878c-11.288 0-20.44-9.152-20.44-20.44v-81.756c0-11.286 9.15-20.44 20.44-20.44h40.878v-45.988h-61.318c-6.782 0-13.122-3.364-16.926-8.98-3.802-5.616-4.57-12.752-2.052-19.050l29.67-74.166h-14.778c-25.92 0-47.010-21.088-47.010-47.010v-49.054c0-22.348 15.678-41.088 36.608-45.836 23.242-203.976 21.316-216.25-84.714-391.56h-12.7c-34.092 0-61.828-27.736-61.828-61.828v-29.636c0-34.092 27.736-61.828 61.828-61.828h469.078c34.092 0 61.828 27.736 61.828 61.828v29.636c0.002 34.094-27.734 61.83-61.828 61.83zM430.244 811.816v40.878h40.878c11.288 0 20.44 9.152 20.44 20.44v45.988h40.878v-45.988c0-11.286 9.15-20.44 20.44-20.44h40.878v-40.878h-40.878c-11.288 0-20.44-9.152-20.44-20.44v-66.428h-40.88v66.43c0 11.286-9.15 20.44-20.44 20.44h-40.876zM604.446 684.072l-24.526-61.318h-135.836l-24.526 61.318h184.888zM385.278 520.558c-3.38 0-6.132 2.752-6.132 6.132v49.054c0 3.38 2.752 6.132 6.132 6.132h253.446c3.38 0 6.132-2.752 6.132-6.132v-49.054c0-3.38-2.752-6.132-6.132-6.132h-253.446zM426.044 380.55h76.76c11.288 0 20.44 9.152 20.44 20.44s-9.15 20.44-20.44 20.44h-80.326c-1.768 17.702-3.908 36.986-6.324 58.252h191.694c-16.438-144.72-20.124-197.868 19.308-283.082h-116.178c-11.288 0-20.44-9.152-20.44-20.44s9.15-20.44 20.44-20.44h136.908c10.726-19.738 23.386-41.528 38.266-66.428h-348.304c79.72 133.414 96.222 178.072 88.196 291.258zM767.488-2.172c0-11.552-9.398-20.95-20.95-20.95h-469.076c-11.552 0-20.95 9.398-20.95 20.95v29.636c0 11.552 9.398 20.95 20.95 20.95h469.078c11.552 0 20.95-9.398 20.95-20.95v-29.636z" />
<glyph unicode="&#xe907;" glyph-name="circle" d="M946.861 525.139h-45.583c-10.834 51.875-31.834 100.041-60.667 142.319l33.39 33.431c30.194 30.153 30.194 79.013 0 109.097-30.085 30.153-78.972 30.153-109.085 0l-34.417-34.431c-42.195 27.834-89.972 47.834-141.334 57.932v49.345c0.001 42.611-34.525 77.167-77.138 77.167-42.668 0-77.196-34.556-77.196-77.167v-49.347c-51.361-10.098-99.139-30.125-141.334-57.932l-34.473 34.445c-30.111 30.18-78.944 30.18-109.139 0.014-30.084-30.098-30.084-78.961 0-109.125l33.5-33.431c-28.833-42.277-49.834-90.444-60.778-142.319h-45.468c-42.584 0.001-77.139-34.527-77.139-77.138s34.555-77.181 77.139-77.181h43.945c9.833-53.083 29.972-102.5 58.694-145.987l-29.889-29.805c-30.084-30.125-30.084-78.961 0-109.085 30.139-30.139 79.027-30.139 109.139 0l28.861 28.808c43.528-29.765 93.277-51.014 146.944-61.583v-40.056c0-42.555 34.529-77.11 77.194-77.11 42.611 0 77.14 34.555 77.14 77.11v40.056c53.667 10.514 103.416 31.818 146.945 61.583l28.805-28.767c30.166-30.18 79-30.18 109.085 0 30.194 30.084 30.194 78.947 0 109.070l-29.78 29.779c28.667 43.487 48.86 92.904 58.693 145.987h43.945c42.582 0 77.138 34.57 77.138 77.181s-34.556 77.139-77.139 77.139zM512.027 120.708c-177.919 0-322.584 144.695-322.584 322.611 0 177.889 144.667 322.611 322.584 322.611 177.889 0 322.528-144.722 322.528-322.611 0-177.916-144.639-322.611-322.528-322.611zM468.972 171.139c-18.86 2.778-37.111 7.319-54.611 13.526 2.749 62.945 5.612 122.001 7.306 156.335-22.083-30.474-36.945-78.25-43.889-140.613-25.612 13.252-49 30.098-69.5 49.988 13.417 75.831 39.444 130.639 78.944 166.042 10.833 9.709 22.278 18.596 34.721 25.958 7.112 4.192 14.641 7.583 22.362 10.362 18.916 6.833 39.055 10.083 59.084 10.764l-34.417-292.361zM631.388 423.041c-15.611 12.223-31.777 22.682-50.556 29.251-17.444 6.111-35.777 9.527-54.166 10.792l27.5-292.082c21.471 3.112 42.139 8.502 61.834 15.985-3.112 54.779-7.862 116.238-10.889 153.958 22.555-30.57 36.888-78.001 42.221-140.015 25.834 13.516 49.445 30.682 70.054 50.972-13.025 79.028-41.747 136.5-85.998 171.14zM513.389 474.18c59.222 0 107.279 48.527 107.279 108.486 0 59.931-48.058 108.486-107.279 108.486-59.223 0-107.223-48.556-107.223-108.486 0-59.959 48-108.486 107.223-108.486z" />
<glyph unicode="&#xe908;" glyph-name="clock" d="M689.504 430.848c0-26.528-21.504-48-48-48h-128.672c-26.528 0-48 21.472-48 48v217.632c0 26.528 21.472 48 48 48 26.496 0 48-21.472 48-48v-169.632h80.672c26.496 0 48-21.472 48-48zM1024 448c0-282.304-229.696-512-512-512s-512 229.696-512 512 229.696 512 512 512c282.304 0 512-229.696 512-512zM924.64 397.344h-79.328c-26.496 0-48 21.472-48 48s21.504 48 48 48h80.128c-20.928 192.32-173.504 345.472-365.44 367.68v-82.336c0-26.528-21.504-48-48-48s-48 21.472-48 48v82.336c-191.936-22.176-344.48-175.328-365.376-367.68h80.064c26.464 0 48-21.472 48-48s-21.536-48-48-48h-79.296c23.232-189.792 174.432-340.352 364.608-362.336v76.992c0 26.528 21.504 48 48 48s48-21.472 48-48v-76.992c190.176 21.92 341.44 172.544 364.64 362.336z" />
<glyph unicode="&#xe909;" glyph-name="close" d="M0 832v-768l384 384v384zM640 832v-768l384 384v384z" />
<glyph unicode="&#xe90a;" glyph-name="computer" d="M962.184 904.126h-900.366c-34.086 0-61.818-27.732-61.818-61.818v-621.639c0-34.086 27.732-61.818 61.818-61.818h308.521v-44.98c0-41.234-33.548-74.782-74.782-74.782h-67.994c-13.036 0-23.606-10.568-23.606-23.606s10.57-23.606 23.606-23.606h568.873c13.036 0 23.606 10.568 23.606 23.606s-10.57 23.606-23.606 23.606h-67.996c-41.234 0-74.782 33.548-74.782 74.782v44.978h308.521c34.086 0 61.82 27.732 61.82 61.818v621.641c0.004 34.086-27.728 61.818-61.814 61.818zM391.841 39.084c16.092 20.672 25.714 46.616 25.714 74.782v44.98h188.894v-44.98c0-28.166 9.622-54.112 25.714-74.782h-240.322zM976.79 220.667c0-8.054-6.552-14.608-14.608-14.608h-900.364c-8.054 0-14.608 6.552-14.608 14.608v124.066h929.58v-124.066zM976.79 391.947h-929.578v450.361c0 8.054 6.552 14.608 14.608 14.608h900.362c8.054 0 14.61-6.552 14.61-14.608v-450.361zM537.483 275.389c0-14.070-11.406-25.476-25.476-25.476s-25.476 11.406-25.476 25.476c0 14.070 11.406 25.476 25.476 25.476s25.476-11.406 25.476-25.476zM552.477 741.492c-9.22 9.218-24.162 9.218-33.386 0l-166.828-166.828c-9.218-9.218-9.218-24.166 0-33.386 4.612-4.61 10.65-6.914 16.694-6.914s12.082 2.304 16.692 6.914l166.828 166.828c9.218 9.218 9.218 24.166 0 33.386zM651.357 644.813c-9.216 9.218-24.158 9.218-33.384 0.002l-66.46-66.456c-9.218-9.22-9.218-24.168 0-33.386 4.61-4.61 10.65-6.914 16.692-6.914 6.040 0 12.082 2.304 16.692 6.914l66.46 66.456c9.218 9.218 9.218 24.166 0 33.384z" />
<glyph unicode="&#xe90b;" glyph-name="cup" d="M726.464 417.79c-6.926 5.514-17.016 4.366-22.528-2.562-5.77-7.252-12.032-14.264-18.612-20.84-13.588-13.59-28.696-25.53-44.902-35.492-7.544-4.634-9.902-14.512-5.266-22.054 3.028-4.928 8.288-7.64 13.674-7.64 2.864 0 5.762 0.768 8.38 2.376 18.34 11.272 35.428 24.774 50.788 40.134 7.434 7.432 14.504 15.352 21.028 23.548 5.518 6.928 4.37 17.014-2.562 22.53zM772.81 583.748c-8.856 0-16.034-7.178-16.034-16.034 0-33.588-6.53-66.006-19.412-96.348-3.458-8.152 0.344-17.564 8.496-21.026 2.046-0.868 4.168-1.278 6.26-1.278 6.24 0 12.172 3.666 14.764 9.772 14.572 34.328 21.96 70.962 21.96 108.88 0 8.856-7.178 16.034-16.034 16.034zM879.7 609.402c-9.012 0-17.94-0.864-26.722-2.516v30.308h35.274c8.856 0 16.034 7.178 16.034 16.034v94.062c0 8.854-7.176 16.034-16.034 16.034h-752.502c-8.856 0-16.034-7.178-16.034-16.034v-94.062c0-8.854 7.176-16.034 16.034-16.034h35.274v-30.308c-8.782 1.652-17.71 2.516-26.722 2.516-79.568 0-144.3-64.732-144.3-144.3s64.732-144.3 144.3-144.3c36.59 0 71.212 13.74 97.696 38.174 52.22-67.574 127.73-112.622 211.214-127.136v-140.566c-76.698-13.304-146.748-52.57-198.5-111.564-4.152-4.73-5.15-11.454-2.552-17.188 2.6-5.734 8.312-9.416 14.606-9.416h490.472c6.294 0 12.006 3.684 14.606 9.416 2.598 5.734 1.598 12.456-2.552 17.188-51.752 58.994-121.8 98.262-198.5 111.564v140.566c83.484 14.514 158.994 59.564 211.214 127.136 26.486-24.434 61.106-38.174 97.696-38.174 79.568 0 144.3 64.732 144.3 144.3s-64.734 144.3-144.302 144.3zM151.782 669.26v61.996h720.436v-61.996h-720.436zM879.7 508.926c24.166 0 43.824-19.66 43.824-43.824s-19.66-43.824-43.824-43.824c-22.952 0-41.616 17.356-43.586 39.93 3.144 9.65 5.896 19.614 8.202 29.724 8.26 11.312 21.3 17.994 35.384 17.994zM187.884 461.206c-1.966-22.572-20.632-39.93-43.584-39.93-24.166 0-43.824 19.66-43.824 43.824s19.66 43.824 43.824 43.824c14.084 0 27.124-6.684 35.38-17.996 2.31-10.108 5.060-20.070 8.204-29.722zM144.3 352.868c-61.884 0-112.234 50.348-112.234 112.234s50.35 112.234 112.234 112.234c9.054 0 18-1.104 26.722-3.24v-6.38c0-10.738 0.532-21.474 1.528-32.158-8.838 3.538-18.394 5.436-28.25 5.436-41.848 0-75.892-34.044-75.892-75.892s34.044-75.892 75.892-75.892c24.776 0 46.692 11.678 60.522 29.938 5.56-11.524 11.75-22.752 18.596-33.608-20.96-20.878-49.202-32.672-79.118-32.672zM718.858-14.832h-413.718c46.338 41.526 104.168 68.306 166.188 76.432 7.98 1.046 13.95 7.848 13.95 15.898v149.238h53.446v-149.238c0-8.050 5.968-14.852 13.95-15.898 62.018-8.126 119.848-34.906 166.184-76.432zM767.156 393.026c-0.006-0.006-0.010-0.012-0.014-0.022-57.49-84.032-152.868-134.2-255.14-134.2s-197.652 50.168-255.142 134.2c-0.004 0.006-0.010 0.012-0.016 0.022-15.932 23.292-28.562 48.598-37.542 75.22-3.548 10.524-6.586 21.524-9.028 32.694 0 0.004-0.002 0.008-0.004 0.012-4.762 21.838-7.178 44.302-7.178 66.764v69.478h617.82v-69.478c0-22.462-2.416-44.926-7.18-66.764 0-0.004-0.002-0.008-0.004-0.012-2.442-11.17-5.48-22.168-9.028-32.694-8.982-26.622-21.612-51.93-37.544-75.22zM879.7 352.868c-29.916 0-58.156 11.794-79.118 32.672 6.848 10.856 13.036 22.084 18.596 33.608 13.83-18.258 35.744-29.938 60.52-29.938 41.848 0 75.892 34.044 75.892 75.892s-34.044 75.892-75.892 75.892c-9.858 0-19.414-1.898-28.25-5.436 0.996 10.684 1.528 21.42 1.528 32.158v6.38c8.724 2.14 17.668 3.24 26.722 3.24 61.884 0 112.234-50.346 112.234-112.234s-50.348-112.234-112.232-112.234zM663.956 496.038c-2.246 6.436-8.318 10.75-15.138 10.75h-91.384l-30.366 83.508c-2.304 6.336-8.326 10.554-15.070 10.554s-12.764-4.218-15.070-10.554l-30.366-83.508h-91.384c-6.818 0-12.89-4.314-15.138-10.75-2.246-6.438-0.176-13.594 5.164-17.836l77.234-61.36-22.87-83.866c-1.818-6.658 0.832-13.732 6.574-17.558 5.742-3.83 13.292-3.556 18.738 0.684l67.116 52.2 67.118-52.2c2.886-2.244 6.362-3.378 9.844-3.378 3.092 0 6.192 0.892 8.89 2.694 5.744 3.828 8.39 10.9 6.574 17.558l-22.87 83.866 77.234 61.36c5.346 4.24 7.416 11.398 5.17 17.836zM553.334 435.374c-5.022-3.99-7.182-10.586-5.494-16.772l12.996-47.658-38.992 30.326c-2.896 2.252-6.37 3.378-9.844 3.378s-6.948-1.126-9.844-3.378l-38.992-30.326 12.996 47.658c1.688 6.186-0.474 12.784-5.494 16.774l-49.528 39.348h56.658c6.74 0 12.764 4.218 15.070 10.554l19.134 52.624 19.136-52.626c2.304-6.336 8.326-10.554 15.070-10.554h56.658l-49.53-39.348zM554.756 900.14h-26.722v26.724c0 8.854-7.176 16.034-16.034 16.034-8.856 0-16.034-7.178-16.034-16.034v-26.724h-26.722c-8.856 0-16.034-7.178-16.034-16.034 0-8.854 7.176-16.034 16.034-16.034h26.722v-26.722c0-8.854 7.176-16.034 16.034-16.034 8.856 0 16.034 7.178 16.034 16.034v26.724h26.722c8.856 0 16.034 7.178 16.034 16.034 0 8.854-7.178 16.032-16.034 16.032zM794.188 900.14h-26.722v26.724c0 8.854-7.176 16.034-16.034 16.034-8.856 0-16.034-7.178-16.034-16.034v-26.724h-26.722c-8.856 0-16.034-7.178-16.034-16.034 0-8.854 7.176-16.034 16.034-16.034h26.722v-26.722c0-8.854 7.176-16.034 16.034-16.034 8.856 0 16.034 7.178 16.034 16.034v26.724h26.722c8.856 0 16.034 7.178 16.034 16.034 0 8.854-7.178 16.032-16.034 16.032zM332.426 900.14h-26.722v26.724c0 8.854-7.176 16.034-16.034 16.034-8.856 0-16.034-7.178-16.034-16.034v-26.724h-26.722c-8.856 0-16.034-7.178-16.034-16.034 0-8.854 7.176-16.034 16.034-16.034h26.722v-26.722c0-8.854 7.176-16.034 16.034-16.034 8.856 0 16.034 7.178 16.034 16.034v26.724h26.722c8.856 0 16.034 7.178 16.034 16.034 0 8.854-7.178 16.032-16.034 16.032z" />
<glyph unicode="&#xe90c;" glyph-name="graphic" d="M978.122 888.24h-443.184v25.818c0 12.668-10.27 22.938-22.938 22.938s-22.938-10.27-22.938-22.938v-25.818h-443.184c-25.298 0-45.878-20.58-45.878-45.878v-42.568c0-25.296 20.58-45.878 45.878-45.878h6.234v-515.59c0-25.296 20.58-45.878 45.878-45.878h391.072v-67.324l-169.986-124.686c-10.214-7.494-12.424-21.85-4.93-32.064 7.496-10.216 21.85-12.422 32.064-4.93l142.852 104.784v-86.288c0-12.668 10.27-22.938 22.938-22.938 12.67 0 22.938 10.27 22.938 22.938v86.288l142.852-104.784c4.088-2.998 8.84-4.444 13.55-4.444 7.058 0 14.020 3.246 18.514 9.372 7.494 10.214 5.286 24.57-4.93 32.064l-169.986 124.686v67.324h391.072c25.296 0 45.878 20.58 45.878 45.878v515.594h6.234c25.296 0 45.878 20.58 45.878 45.878v42.566c0 25.298-20.58 45.878-45.878 45.878zM926.010 238.33h-828.020v515.588h828.022v-515.588zM978.122 799.796h-932.244v42.566h932.246v-42.566zM511.564 687.492c-11.402 0-20.644-9.242-20.644-20.644v-158.314h-158.314c-11.402 0-20.644-9.242-20.644-20.644 0-110.062 89.542-199.602 199.604-199.602s199.606 89.542 199.606 199.602-89.546 199.602-199.608 199.602zM511.564 329.576c-80.3 0-146.826 60.092-156.974 137.668h156.974c11.402 0 20.644 9.242 20.644 20.644v156.974c77.576-10.148 137.67-76.674 137.67-156.974 0.002-87.294-71.018-158.312-158.314-158.312zM441.69 708.85c-83.304 0-151.078-67.782-151.078-151.096 0-11.402 9.242-20.644 20.644-20.644h130.434c11.402 0 20.644 9.242 20.644 20.644v130.452c0.002 11.402-9.24 20.644-20.644 20.644zM421.046 578.398h-87.198c8.406 44.026 43.18 78.806 87.198 87.214v-87.214z" />
<glyph unicode="&#xe90d;" glyph-name="graphic-1" d="M1003.602 143.982h-38.652v579.876c0 11.264-9.132 20.398-20.398 20.398h-126.96c-11.266 0-20.398-9.134-20.398-20.398v-579.876h-53.006v522.644c0 11.264-9.132 20.398-20.398 20.398h-126.96c-11.266 0-20.398-9.134-20.398-20.398v-522.642h-53.006v622.802c0 11.264-9.132 20.398-20.398 20.398h-126.96c-11.266 0-20.398-9.134-20.398-20.398v-622.802h-53.006v453.142c0 11.264-9.132 20.398-20.398 20.398h-126.96c-11.266 0-20.398-9.134-20.398-20.398v-453.142h-53.228v628.434c0 11.264-9.132 20.398-20.398 20.398s-20.398-9.134-20.398-20.398v-26.114h-20.486c-11.266 0-20.398-9.136-20.398-20.4s9.132-20.398 20.398-20.398h20.484v-49.144h-20.484c-11.266 0-20.398-9.134-20.398-20.398s9.132-20.398 20.398-20.398h20.484v-49.144h-20.484c-11.266 0-20.398-9.134-20.398-20.398s9.132-20.398 20.398-20.398h20.484v-49.142h-20.484c-11.266 0-20.398-9.136-20.398-20.4s9.132-20.398 20.398-20.398h20.484v-49.144h-20.484c-11.266 0-20.398-9.134-20.398-20.398s9.132-20.398 20.398-20.398h20.484v-49.144h-20.484c-11.266 0-20.398-9.134-20.398-20.398s9.132-20.398 20.398-20.398h20.484v-49.142h-20.484c-11.266 0-20.398-9.134-20.398-20.398s9.132-20.398 20.398-20.398h20.484v-42.284c0-11.264 9.132-20.398 20.398-20.398h942.32c11.266 0 20.398 9.134 20.398 20.398s-9.13 20.398-20.396 20.398zM261.868 143.984h-86.162v340.76h86.162v-340.76zM261.868 525.542h-86.162c0 0 0 51.186 0 51.186h86.162v-51.186zM482.63 143.984h-86.162v426.222h86.162v-426.222zM482.63 611.002h-86.162v135.384h86.162v-135.384zM703.39 143.984h-86.162v265.13h86.162v-265.13zM703.39 449.91h-86.162v196.316h86.162v-196.316zM924.152 143.984h-86.162v365.29h86.162v-365.29zM924.152 550.070h-86.162v153.39h86.162v-153.39z" />
<glyph unicode="&#xe90e;" glyph-name="layers" d="M1023.998 447.999c0 21.642-12.024 41.102-31.388 50.796l-76.244 38.122 76.244 38.12c0.002 0.002 0.008 0.004 0.008 0.004 19.36 9.69 31.384 29.152 31.384 50.794 0 21.638-12.026 41.1-31.388 50.794l-430.435 215.212c-31.424 15.698-68.94 15.698-100.37-0.002l-430.427-215.22c-19.356-9.686-31.382-29.146-31.382-50.786 0-21.642 12.024-41.102 31.388-50.796l76.242-38.12-76.252-38.126c-19.354-9.69-31.378-29.15-31.378-50.792s12.024-41.102 31.388-50.794l76.242-38.122-76.236-38.118c-19.354-9.67-31.386-29.124-31.394-50.768-0.008-21.656 12.016-41.128 31.388-50.824l430.429-215.216c15.712-7.85 32.942-11.772 50.18-11.772s34.476 3.926 50.19 11.774l430.429 215.216c19.364 9.69 31.39 29.164 31.382 50.82-0.008 21.644-12.040 41.098-31.388 50.762l-76.244 38.122 76.252 38.126c19.356 9.692 31.38 29.152 31.38 50.794zM52.45 617.139c-4.678 2.342-5.374 6.452-5.374 8.692s0.7 6.35 5.366 8.686l430.415 215.208c9.126 4.56 19.136 6.836 29.146 6.836 10.006 0 20.014-2.278 29.134-6.834l430.413-215.206c4.674-2.34 5.374-6.45 5.374-8.69s-0.696-6.35-5.374-8.692l-430.407-215.202c-18.25-9.116-40.038-9.116-58.278-0.002l-430.415 215.204zM971.564 278.851c4.66-2.328 5.358-6.43 5.358-8.672 0.002-2.246-0.696-6.364-5.366-8.7l-430.415-215.208c-18.25-9.116-40.038-9.118-58.278-0.002l-430.413 215.208c-4.678 2.342-5.376 6.458-5.374 8.704 0 2.238 0.696 6.342 5.366 8.674l107.824 53.912 301.551-150.774c15.712-7.85 32.942-11.772 50.178-11.772 17.238 0 34.476 3.926 50.19 11.774l301.543 150.772 107.836-53.916zM971.554 439.311l-430.413-215.208c-18.25-9.116-40.038-9.118-58.278-0.002l-430.413 215.206c-4.678 2.34-5.374 6.45-5.374 8.69 0 2.244 0.696 6.35 5.366 8.688l107.824 53.912 301.551-150.774c15.71-7.85 32.944-11.772 50.178-11.772s34.474 3.924 50.188 11.776l301.547 150.772 107.816-53.908c4.678-2.342 5.374-6.45 5.374-8.692 0.002-2.24-0.696-6.35-5.366-8.688z" />
<glyph unicode="&#xe90f;" glyph-name="left2" d="M327.742 488.033c-25.221 7.261-50.442 10.945-74.975 10.945-37.885 0-69.497-8.658-94.009-19.259 23.631 86.511 80.399 235.785 193.485 252.595 10.473 1.558 19.055 9.13 21.912 19.324l24.716 88.402c2.084 7.476 0.849 15.478-3.416 21.966s-11.117 10.817-18.797 11.869c-8.346 1.139-16.853 1.719-25.285 1.719-135.739 0-270.168-141.679-326.893-344.541-33.298-119.015-43.062-297.945 38.959-410.569 45.898-63.020 112.86-96.673 199.028-100.035 0.354-0.011 0.698-0.021 1.053-0.021 106.318 0 200.596 71.602 229.275 174.107 17.133 61.28 9.388 125.546-21.827 181.003-30.882 54.835-81.742 94.804-143.226 112.495zM993.269 375.528c-30.882 54.846-81.742 94.814-143.226 112.506-25.221 7.261-50.442 10.945-74.964 10.945-37.885 0-69.508-8.658-94.020-19.259 23.631 86.511 80.399 235.785 193.496 252.595 10.473 1.558 19.045 9.13 21.912 19.324l24.716 88.402c2.084 7.476 0.849 15.478-3.416 21.966-4.254 6.488-11.107 10.817-18.797 11.869-8.335 1.139-16.843 1.719-25.285 1.719-135.739 0-270.168-141.679-326.904-344.541-33.288-119.015-43.052-297.945 38.981-410.59 45.887-63.009 112.86-96.673 199.017-100.024 0.354-0.011 0.698-0.021 1.063-0.021 106.308 0 200.596 71.602 229.275 174.107 17.111 61.28 9.356 125.556-21.848 181.003z" />
<glyph unicode="&#xe910;" glyph-name="man" d="M819.59 835.194c-57.398 64.048-133.182 123.485-320.499 124.792-73.174 0.584-184.947-16.729-271.887-108.662-52.607-55.516-91.321-125.658-80.303-240.302 2.393-24.879 37.922-53.657 12.946-101.666 0 0-53.588-94.354-51.71-110.047 0 0-0.98-28.699 43.417-29.601 0 0 11.1-1.436 7.888-25.896l-0.488-35.658c0 0 1.417-10.613 20.839-17.060 0 0 3.7-3.7-1.85-10.686 0 0-10.231-11.4 7.4-36.044 6.526-8.974 17.083-20.291 10.608-43.523 0 0-8.325-44.774 9.25-55.498 0 0 19.996-23.715 100.405-13.788 28.073 3.452 79.972 17.056 110.931-21.787 0 0 73.961-140.527 79.567-173.769 0 0 126.219 224.687 280.29 259.369 0 0-37.54 84.629 38.792 194.225 0 0 95.725 126.247 98.528 195.597-0.060 0.005 25.215 116.863-94.123 250.003zM586.33 861.353l42.98-15.9-42.708-115.243-42.924 15.887 42.653 115.257zM418.682 846.989l51.388-111.704-41.617-19.136-51.337 111.662 41.567 19.177zM356.415 624.392l-115.252 42.657 15.887 42.952 115.257-42.657-15.891-42.952zM495.064 429.854l-7.538 16.457c-42.703 8.486-80.897 36.435-100.456 78.941-32.344 70.386-1.523 153.708 68.848 186.079 70.427 32.344 153.694 1.496 186.066-68.917 19.559-42.501 15.887-89.779-5.495-127.632l7.566-16.485-148.99-68.443zM500.122 418.891l148.908 68.453 6.664-14.511-148.99-68.439-6.581 14.497zM649.522 420.415c2.964-16.651-12.325-37.489-37.406-49.018-25.027-11.478-50.868-9.577-61.531 3.539-14.225-5.656-30.522 0.488-36.965 14.497l-1.661 3.617 148.935 68.439 1.712-3.59c6.415-14.037 0.488-30.388-13.084-37.485z" />
<glyph unicode="&#xe911;" glyph-name="mathematics" d="M1007.66 529.702c9.026 0 16.34 7.316 16.34 16.34s-7.314 16.34-16.34 16.34c-210.236 0-381.277 171.041-381.277 381.277 0 9.024-7.314 16.34-16.34 16.34s-16.34-7.316-16.34-16.34c0-228.258 185.699-413.957 413.957-413.957zM16.34 366.298c-9.026 0-16.34-7.316-16.34-16.34s7.314-16.34 16.34-16.34c210.236 0 381.277-171.041 381.277-381.277 0-9.024 7.314-16.34 16.34-16.34s16.34 7.316 16.34 16.34c0 228.258-185.699 413.957-413.957 413.957zM544.681 266.44c9.026 0 16.34 7.316 16.34 16.34s-7.314 16.34-16.34 16.34h-16.34v297.757h16.34c9.026 0 16.34 7.316 16.34 16.34s-7.314 16.34-16.34 16.34h-16.34v132.54h16.34c9.026 0 16.34 7.316 16.34 16.34s-7.314 16.34-16.34 16.34h-16.34v132.538h16.34c9.026 0 16.34 7.316 16.34 16.34s-7.314 16.34-16.34 16.34h-65.362c-9.026 0-16.34-7.316-16.34-16.34s7.314-16.34 16.34-16.34h16.34v-132.538h-16.34c-9.026 0-16.34-7.316-16.34-16.34s7.314-16.34 16.34-16.34h16.34v-132.538h-16.34c-9.026 0-16.34-7.316-16.34-16.34s7.314-16.34 16.34-16.34h16.34v-132.54h-132.538v16.34c0 9.024-7.314 16.34-16.34 16.34s-16.34-7.316-16.34-16.34v-16.34h-132.54v16.34c0 9.024-7.314 16.34-16.34 16.34s-16.34-7.316-16.34-16.34v-16.34h-132.538v16.34c0 9.024-7.314 16.34-16.34 16.34s-16.34-7.316-16.34-16.34v-65.362c0-9.024 7.314-16.34 16.34-16.34s16.34 7.316 16.34 16.34v16.34h132.538v-16.34c0-9.024 7.314-16.34 16.34-16.34s16.34 7.316 16.34 16.34v16.34h132.54v-16.34c0-9.024 7.314-16.34 16.34-16.34s16.34 7.316 16.34 16.34v16.34h132.538v-132.538h-16.34c-9.026 0-16.34-7.316-16.34-16.34s7.314-16.34 16.34-16.34h16.34v-132.538h-16.34c-9.026 0-16.34-7.316-16.34-16.34s7.314-16.34 16.34-16.34h16.34v-132.54h-16.34c-9.026 0-16.34-7.316-16.34-16.34s7.314-16.34 16.34-16.34h65.362c9.026 0 16.34 7.316 16.34 16.34s-7.314 16.34-16.34 16.34h-16.34v132.538h16.34c9.026 0 16.34 7.316 16.34 16.34s-7.314 16.34-16.34 16.34h-16.34v132.538h16.34zM1007.66 497.021c-9.026 0-16.34-7.316-16.34-16.34v-16.34h-132.538v16.34c0 9.024-7.314 16.34-16.34 16.34s-16.34-7.316-16.34-16.34v-16.34h-132.54v16.34c0 9.024-7.314 16.34-16.34 16.34s-16.34-7.316-16.34-16.34v-16.34h-83.517c-9.026 0-16.34-7.316-16.34-16.34s7.314-16.34 16.34-16.34h83.517v-16.34c0-9.024 7.314-16.34 16.34-16.34s16.34 7.316 16.34 16.34v16.34h132.54v-16.34c0-9.024 7.314-16.34 16.34-16.34s16.34 7.316 16.34 16.34v16.34h132.538v-16.34c0-9.024 7.314-16.34 16.34-16.34s16.34 7.316 16.34 16.34v65.362c0 9.024-7.314 16.34-16.34 16.34z" />
<glyph unicode="&#xe912;" glyph-name="multimedia" d="M942.298 464.34h-167.829c-1.331 81.567-12.597 160.389-32.182 230.278h110.065c9.026 0 16.34 7.314 16.34 16.34s-7.314 16.34-16.34 16.34h-120.074c-17.469 52.649-39.905 99.178-66.567 136.51-5.246 7.344-15.454 9.048-22.794 3.802-7.344-5.244-9.046-15.452-3.802-22.794 23.134-32.393 42.895-72.331 58.749-117.518h-169.524v150.999c0 9.026-7.314 16.34-16.34 16.34s-16.34-7.314-16.34-16.34v-150.999h-169.526c15.855 45.187 35.616 85.125 58.749 117.518 5.244 7.342 3.543 17.55-3.802 22.794-7.347 5.244-17.55 3.54-22.794-3.802-26.661-37.332-49.098-83.863-66.567-136.51h-120.074c-9.026 0-16.34-7.314-16.34-16.34s7.314-16.34 16.34-16.34h110.065c-19.582-69.889-30.849-148.711-32.182-230.278h-167.827c-9.026 0-16.34-7.314-16.34-16.34s7.314-16.34 16.34-16.34h167.829c1.331-81.567 12.597-160.389 32.182-230.278h-110.067c-9.026 0-16.34-7.314-16.34-16.34s7.314-16.34 16.34-16.34h120.074c17.471-52.658 39.914-99.195 66.582-136.532 3.19-4.464 8.214-6.846 13.312-6.846 3.286 0 6.604 0.989 9.484 3.044 7.342 5.246 9.044 15.452 3.8 22.796-23.14 32.395-42.906 72.342-58.765 117.536h169.526v-150.996c0-9.026 7.314-16.34 16.34-16.34s16.34 7.314 16.34 16.34v150.999h169.526c-15.857-45.195-35.624-85.14-58.765-117.536-5.244-7.344-3.543-17.55 3.8-22.796 2.878-2.055 6.196-3.044 9.484-3.044 5.1 0 10.122 2.381 13.312 6.846 26.668 37.337 49.108 83.874 66.582 136.532h120.074c9.026 0 16.34 7.314 16.34 16.34s-7.314 16.34-16.34 16.34h-110.067c19.585 69.889 30.851 148.711 32.182 230.278h167.829c9.026 0 16.34 7.314 16.34 16.34s-7.314 16.338-16.34 16.338zM708.39 694.618c20.29-69.028 32.016-148.062 33.391-230.278h-213.441v230.278h180.050zM315.61 694.618h180.050v-230.278h-213.441c1.377 82.218 13.101 161.249 33.391 230.278zM315.61 201.382c-20.29 69.028-32.016 148.062-33.391 230.278h213.441v-230.278h-180.050zM708.39 201.382h-180.050v230.278h213.441c-1.377-82.218-13.101-161.252-33.391-230.278zM874.038 810.038c-96.705 96.705-225.278 149.962-362.038 149.962s-265.334-53.257-362.038-149.962-149.962-225.278-149.962-362.041c0-100.812 29.175-198.044 84.456-281.744l-62.569-187.693c-1.956-5.872-0.429-12.347 3.948-16.724 4.377-4.375 10.848-5.9 16.724-3.948l187.697 62.564c83.702-55.279 180.932-84.454 281.744-84.454 136.761 0 265.334 53.257 362.038 149.962s149.962 225.278 149.962 362.036c0 136.763-53.257 265.336-149.962 362.041zM512-31.319c-96.934 0-190.322 28.807-270.077 83.303-2.75 1.878-5.968 2.85-9.218 2.85-1.736 0-3.482-0.277-5.168-0.839l-164.311-54.767 54.773 164.306c1.614 4.848 0.869 10.17-2.011 14.388-54.501 79.75-83.308 173.141-83.308 270.075 0 264.299 215.020 479.321 479.319 479.321s479.319-215.023 479.319-479.321c0-264.297-215.020-479.317-479.319-479.317z" />
<glyph unicode="&#xe913;" glyph-name="note2" d="M823.112 10.152c-4.815 0-9.578 1.68-13.4 4.919l-207.548 175.948h-459.818c-78.491 0.002-142.346 64.213-142.346 143.141v408.549c0 78.927 63.856 143.138 142.346 143.138h739.307c78.491 0 142.346-64.213 142.346-143.138v-408.549c0-78.927-63.856-143.138-142.346-143.138h-37.765v-159.972c0-8.131-4.687-15.523-12.021-18.948-2.798-1.308-5.787-1.95-8.756-1.95zM142.346 844.052c-55.572 0-100.782-45.461-100.782-101.343v-408.549c0-55.879 45.211-101.343 100.782-101.343h467.408c4.903 0 9.646-1.743 13.398-4.919l179.173-151.897v135.918c0 11.542 9.306 20.898 20.783 20.898h58.546c55.572 0 100.782 45.464 100.782 101.343v408.549c0 55.881-45.211 101.343-100.782 101.343h-739.307zM846.718 651.82h-669.437c-11.477 0-20.781 9.358-20.781 20.898 0 11.542 9.304 20.898 20.781 20.898h669.435c11.477 0 20.781-9.356 20.781-20.898 0-11.54-9.302-20.898-20.779-20.898zM846.718 518.002h-669.437c-11.477 0-20.781 9.358-20.781 20.898 0 11.542 9.304 20.898 20.781 20.898h669.435c11.477 0 20.781-9.356 20.781-20.898 0-11.54-9.302-20.898-20.779-20.898zM846.718 384.182h-669.437c-11.477 0-20.781 9.358-20.781 20.898 0 11.542 9.304 20.898 20.781 20.898h669.435c11.477 0 20.781-9.354 20.781-20.898 0-11.54-9.302-20.898-20.779-20.898z" />
<glyph unicode="&#xe914;" glyph-name="office" d="M192 490.682h-85.334c-11.776 0-21.334-9.558-21.334-21.334v-170.666c0-11.776 9.558-21.334 21.334-21.334h85.334c11.776 0 21.334 9.558 21.334 21.334v170.666c0 11.778-9.558 21.334-21.334 21.334zM170.666 320.016h-42.666v128h42.666v-128zM192 234.682h-85.334c-11.776 0-21.334-9.558-21.334-21.334v-170.666c0-11.776 9.558-21.334 21.334-21.334h85.334c11.776 0 21.334 9.558 21.334 21.334v170.666c0 11.778-9.558 21.334-21.334 21.334zM170.666 64.016h-42.666v128h42.666v-128zM405.334 234.682h-85.334c-11.776 0-21.334-9.558-21.334-21.334v-170.666c0-11.776 9.558-21.334 21.334-21.334h85.334c11.776 0 21.334 9.558 21.334 21.334v170.666c-0.002 11.778-9.558 21.334-21.334 21.334zM384 64.016h-42.666v128h42.666v-128zM1008.938 788.41l-554.666 170.668c-6.486 1.92-13.526 0.768-18.944-3.242-5.462-4.010-8.662-10.368-8.662-17.152v-256.554l-412.628-150.060c-8.448-3.072-14.038-11.094-14.038-20.054v-554.666c0-11.776 9.558-21.334 21.334-21.334h981.334c11.776 0 21.334 9.558 21.334 21.334v810.666c-0.002 9.386-6.104 17.664-15.064 20.394zM469.334-21.318h-426.668v518.4l426.666 155.136v-673.536zM981.334-21.318h-469.334v704c0 3.498-0.854 6.87-2.39 9.856s-3.84 5.632-6.698 7.638c-5.718 3.968-13.014 4.992-19.542 2.56l-14.038-5.078v212.14l512-157.526v-773.59zM576 277.35h85.334c11.776 0 21.334 9.558 21.334 21.334v170.666c0 11.776-9.558 21.334-21.334 21.334h-85.334c-11.776 0-21.334-9.558-21.334-21.334v-170.666c0-11.778 9.558-21.334 21.334-21.334zM597.334 448.016h42.666v-128h-42.666v128zM405.334 490.682h-85.334c-11.776 0-21.334-9.558-21.334-21.334v-170.666c0-11.776 9.558-21.334 21.334-21.334h85.334c11.776 0 21.334 9.558 21.334 21.334v170.666c-0.002 11.778-9.558 21.334-21.334 21.334zM384 320.016h-42.666v128h42.666v-128zM576 533.35h85.334c11.776 0 21.334 9.558 21.334 21.334v170.666c0 11.776-9.558 21.334-21.334 21.334h-85.334c-11.776 0-21.334-9.558-21.334-21.334v-170.666c0-11.778 9.558-21.334 21.334-21.334zM597.334 704.016h42.666v-128h-42.666v128zM576 21.35h85.334c11.776 0 21.334 9.558 21.334 21.334v170.666c0 11.776-9.558 21.334-21.334 21.334h-85.334c-11.776 0-21.334-9.558-21.334-21.334v-170.666c0-11.778 9.558-21.334 21.334-21.334zM597.334 192.016h42.666v-128h-42.666v128zM789.334 533.35h85.334c11.776 0 21.334 9.558 21.334 21.334v170.666c0 11.776-9.558 21.334-21.334 21.334h-85.334c-11.776 0-21.334-9.558-21.334-21.334v-170.666c0-11.778 9.558-21.334 21.334-21.334zM810.666 704.016h42.666v-128h-42.666v128zM789.334 277.35h85.334c11.776 0 21.334 9.558 21.334 21.334v170.666c0 11.776-9.558 21.334-21.334 21.334h-85.334c-11.776 0-21.334-9.558-21.334-21.334v-170.666c0-11.778 9.558-21.334 21.334-21.334zM810.666 448.016h42.666v-128h-42.666v128zM789.334 21.35h85.334c11.776 0 21.334 9.558 21.334 21.334v170.666c0 11.776-9.558 21.334-21.334 21.334h-85.334c-11.776 0-21.334-9.558-21.334-21.334v-170.666c0-11.778 9.558-21.334 21.334-21.334zM810.666 192.016h42.666v-128h-42.666v128z" />
<glyph unicode="&#xe915;" glyph-name="people" d="M175.694 399.792c0-55.658 20.274-112.022 55.622-154.642 37.172-44.818 85.698-69.502 136.636-69.502 50.932 0 99.398 24.67 136.474 69.464 35.232 42.568 55.438 98.91 55.438 154.582v0.286c0 8.836-7.164 16-16 16s-16-7.164-16-16v-0.286c0-48.348-17.528-97.252-48.090-134.178-30.884-37.316-70.598-57.868-111.822-57.868-41.246 0-81.024 20.574-112.006 57.93-30.666 36.974-48.252 85.894-48.252 134.214v19.19c0 39.582 26.586 93.392 36.666 112.374 64.226 7.366 126.16 4.642 184.198-8.168 1.162-0.256 2.322-0.378 3.464-0.378 7.342 0 13.96 5.088 15.608 12.554 1.904 8.628-3.546 17.168-12.176 19.072-63.666 14.052-131.582 16.692-201.882 7.872-5.256-0.25-10.28-3.072-13.106-7.966-1.024-1.772-14.948-26.084-27-57.178-5.47 29.632-10.484 62.956-10.484 85.56 0 55.976 35.438 81.032 70.56 81.032 1.16 0 2.288 0.13 3.376 0.364 1.102-0.236 2.226-0.366 3.354-0.366 3.372 0 6.774 1.062 9.666 3.26 35.086 26.65 81.96 23.178 127.388 15.456 8.712-1.482 16.976 4.38 18.456 13.092 1.482 8.712-4.38 16.974-13.092 18.456-48.396 8.226-103.502 12.322-147.712-18.334-0.474 0.042-0.95 0.072-1.436 0.072-30.37 0-57.334-12.136-75.926-34.172-17.174-20.356-26.634-48.362-26.634-78.86 0-49.95 21.248-142.26 24.708-156.962v-25.97zM643.506 140.228c-0.344 0.096-0.692 0.18-1.042 0.254l-95.194 19.912-25.166 38.162c-0.178 0.27-0.364 0.534-0.558 0.792-4.576 6.102-11.542 10.126-19.114 11.046-7.564 0.916-15.298-1.324-21.202-6.154-0.102-0.084-0.206-0.17-0.306-0.258l-113.188-97.432-113.186 97.432c-0.102 0.086-0.204 0.172-0.306 0.258-5.904 4.83-13.628 7.074-21.202 6.154-7.572-0.92-14.538-4.946-19.114-11.046-0.194-0.258-0.38-0.522-0.558-0.792l-25.166-38.162-95.194-19.912c-0.35-0.074-0.698-0.158-1.042-0.254-27.68-7.754-51.228-24.916-68.102-49.63-15.39-22.546-23.866-49.762-23.866-76.636v-30.082c0-26.39 23.5-47.862 52.386-47.862h278.92c0.020 0 0.040-0.002 0.060-0.002 0.022 0 0.044 0.002 0.066 0.002h72.606c0.022 0 0.044-0.002 0.066-0.002 0.020 0 0.040 0.002 0.060 0.002h278.922c28.886 0 52.386 21.47 52.386 47.862v30.082c0 26.874-8.476 54.090-23.868 76.634-16.87 24.714-40.418 41.876-68.098 49.632zM498.22 176.646l19.862-30.12-79.498-109.308-47.342 47.34 106.978 92.088zM357.242-0.112h20.992l6.374-31.87h-33.74l6.374 31.87zM383.738 40.654c0-5.268-3.21-8.764-5.334-8.764h-21.334c-2.124 0-5.334 3.496-5.334 8.764v6.158l16 16 16-16v-6.158zM237.256 176.646l106.976-92.086-47.34-47.34-79.498 109.308 19.862 30.118zM32-16.12v30.082c0 37.744 23.392 82.504 68.11 95.312l90.972 19.028 90.944-125.048c2.752-3.786 7.022-6.174 11.688-6.542 0.418-0.034 0.836-0.048 1.252-0.048 4.226 0 8.3 1.674 11.312 4.686l18.656 18.658c0.846-1.564 1.776-3.062 2.8-4.484l-9.5-47.504h-265.848c-11.050 0-20.386 7.264-20.386 15.86zM703.476-16.12c0-8.598-9.336-15.862-20.386-15.862h-265.85l-9.5 47.504c1.024 1.42 1.954 2.92 2.8 4.484l18.658-18.658c3.012-3.012 7.086-4.686 11.312-4.686 0.416 0 0.834 0.016 1.252 0.048 4.666 0.366 8.936 2.756 11.688 6.542l90.944 125.048 90.972-19.028c44.716-12.808 68.11-57.568 68.11-95.312v-30.080zM736 959.982c-158.804 0-288-129.196-288-288s129.196-288 288-288 288 129.196 288 288-129.196 288-288 288zM736 415.982c-141.16 0-256 114.842-256 256s114.84 256 256 256 256-114.842 256-256-114.84-256-256-256zM911.92 801.564c-0.022 0.228-0.066 0.45-0.098 0.674-0.042 0.292-0.076 0.584-0.134 0.874-0.052 0.264-0.124 0.52-0.19 0.778-0.062 0.248-0.116 0.496-0.19 0.74-0.078 0.254-0.174 0.5-0.262 0.75-0.086 0.242-0.166 0.488-0.266 0.726-0.098 0.236-0.212 0.46-0.32 0.69-0.114 0.244-0.222 0.49-0.35 0.728-0.12 0.224-0.256 0.436-0.386 0.654-0.138 0.23-0.268 0.462-0.418 0.686-0.164 0.244-0.346 0.474-0.522 0.71-0.138 0.182-0.264 0.37-0.41 0.548-0.67 0.816-1.418 1.566-2.236 2.236-0.178 0.146-0.366 0.272-0.548 0.41-0.234 0.176-0.466 0.358-0.71 0.522-0.224 0.15-0.456 0.28-0.684 0.416-0.218 0.13-0.432 0.268-0.656 0.388-0.238 0.126-0.484 0.236-0.726 0.35-0.23 0.108-0.456 0.224-0.692 0.322-0.24 0.098-0.484 0.178-0.726 0.266-0.25 0.090-0.496 0.186-0.75 0.262-0.244 0.074-0.494 0.128-0.742 0.19-0.258 0.064-0.514 0.138-0.778 0.19-0.288 0.058-0.58 0.092-0.87 0.132-0.226 0.032-0.448 0.076-0.676 0.098-0.528 0.052-1.056 0.080-1.586 0.080h-95.994c-8.836 0-16-7.164-16-16s7.164-16 16-16h57.374l-121.374-121.374-36.686 36.688c-6.248 6.248-16.378 6.248-22.626 0l-128-128c-6.25-6.25-6.25-16.38 0-22.628 3.124-3.124 7.218-4.686 11.314-4.686s8.19 1.562 11.314 4.686l116.684 116.686 36.686-36.688c2.344-2.342 5.232-3.806 8.258-4.392 1.008-0.196 2.032-0.292 3.056-0.292s2.048 0.098 3.056 0.292c3.026 0.586 5.914 2.050 8.258 4.392 0.002 0.002 0.004 0.004 0.004 0.006l132.682 132.682v-57.374c0-8.836 7.164-16 16-16s16 7.164 16 16v95.996c0 0.528-0.028 1.058-0.080 1.586z" />
<glyph unicode="&#xe916;" glyph-name="people-1" d="M843.34 264.72c-109.434 41.719-174.842 84.486-174.842 84.486l-84.276-266.666-11.53-36.059-37.736 106.918c86.792 120.964-6.499 126.834-22.851 126.834v0h-0.839c-16.142-0.21-109.434-5.87-22.641-126.834l-37.736-106.918-11.53 36.059-84.276 266.666c0 0-65.409-42.767-174.842-84.486-120.545-43.815-112.997-142.976-115.513-328.72h894.546c-2.935 185.743 4.402 284.904-115.932 328.72zM298.479 481.49c-10.901-23.27-29.35-52.201-58.91-66.666-9.644-4.822-7.547-19.287 3.145-20.964 32.285-5.031 78.616 0.629 121.802 33.333l0.629-0.419c109.643-64.78 253.248-49.895 347.588 44.235 111.949 111.949 111.949 293.29 0 405.030-111.949 111.949-293.081 111.949-405.030 0-107.756-107.756-111.74-279.663-12.159-392.242l2.935-2.306zM522.168 850.462c25.786-0.21 46.331-21.174 46.121-47.379-0.21-25.786-21.174-46.96-46.331-46.75-25.996 0.21-46.96 21.384-46.75 47.379 0.21 26.205 21.174 46.75 46.96 46.75zM431.392 725.095c0.629 5.031 3.774 8.386 10.482 9.644 3.564 0.629 7.128 0.839 10.692 0.839 14.256 0 28.721 0 42.977 0 15.094 0 30.398 0 45.492 0 10.901 0 17.4-5.241 17.61-16.142 0.21-9.015-1.258-18.239-2.935-27.254-5.87-33.333-12.159-66.666-18.239-100-2.096-11.111-4.193-22.012-5.66-33.124-0.629-5.241 0.21-10.901 1.467-16.142 1.677-6.918 6.918-10.901 14.046-10.063 5.87 0.629 11.74 2.725 17.4 4.822 4.612 1.677 8.595 4.822 13.207 6.709 6.709 2.725 12.369-2.096 10.692-9.015-1.048-3.983-3.564-8.176-6.499-11.111-16.981-17.191-37.316-27.463-61.635-27.673-11.321-0.21-22.851 0.21-33.962 1.887-18.658 2.725-42.348 25.786-38.994 50.524 2.306 16.771 4.822 33.752 7.757 50.314 5.031 29.14 10.272 58.281 15.304 87.421 0.419 1.887 0.419 3.774 0.419 5.66 0 12.159-3.774 16.562-15.933 18.239-5.241 0.629-10.482 1.048-15.304 2.935-6.289 2.096-8.805 6.918-8.386 11.53z" />
<glyph unicode="&#xe917;" glyph-name="professor" d="M101.836 68.522c2.286 0 4.59 0.46 6.81 1.434 54.442 23.706 146.38 36.044 273.356 36.694l12.322-24.678c4.232-8.432 14.49-11.878 22.904-7.628 8.43 4.216 11.862 14.456 7.628 22.886l-17.050 34.134c-2.902 5.786-8.806 9.438-15.274 9.438-139.076 0-236.408-12.936-297.524-39.544-8.636-3.772-12.578-13.824-8.824-22.476 2.802-6.42 9.066-10.26 15.652-10.26zM989.866 38.4h-34.134v85.334c0 4.522-1.81 8.874-5 12.066l-102.536 102.52c3.208 6.674 5.138 14.062 5.138 21.948 0 28.228-22.972 51.2-51.2 51.2s-51.2-22.972-51.2-51.2 22.972-51.2 51.2-51.2c7.884 0 15.258 1.928 21.93 5.12l97.536-97.518v-78.27h-887.466c-18.826 0-34.134-15.308-34.134-34.134v-51.2c0-9.42 7.646-17.066 17.066-17.066s17.066 7.646 17.066 17.066v51.2h955.734v-51.2c0-9.42 7.628-17.066 17.066-17.066s17.066 7.646 17.066 17.066v51.2c0.002 18.826-15.324 34.134-34.132 34.134zM802.134 243.2c-9.42 0-17.066 7.662-17.066 17.066s7.646 17.066 17.066 17.066 17.066-7.662 17.066-17.066-7.646-17.066-17.066-17.066zM243.66 449.502c12.442-32.392 53.606-136.84 83.474-181.64l2.696-4.078c21.914-33.228 58.572-88.848 182.17-88.848 123.58 0 160.256 55.62 182.17 88.848l2.696 4.078c29.866 44.8 71.014 149.248 83.474 181.64 22.29 5.546 38.86 25.72 38.86 49.698v68.266c0 22.254-14.268 41.234-34.134 48.282v88.252c0 67.38-35.482 191.846-166.724 203.862-0.256 8.056-2.918 14.54-5.888 19.336-16.776 27.118-63.88 32.802-100.454 32.802-303.684 0-307.2-287.232-307.2-290.134 0-9.42 7.628-17.050 17.032-17.050h0.034c9.404 0 17.032 7.612 17.066 17.032 0.034 10.444 3.874 256.018 273.066 256.018 48.264 0 67.602-10.444 71.424-16.622 0.53-0.87 1.98-3.208-1.366-9.882-2.646-5.29-2.356-11.572 0.75-16.606 3.124-5.018 8.602-8.090 14.524-8.090 151.314 0 153.582-163.72 153.6-170.666v-102.4c0-9.42 7.628-17.066 17.066-17.066 9.42 0 17.066-7.662 17.066-17.066v-68.268c0-9.404-7.646-17.066-17.066-17.066-7.116 0-13.482-4.42-15.992-11.076-0.494-1.348-50.892-135.288-83.542-184.252l-2.798-4.232c-20.446-31.028-48.47-73.506-153.668-73.506-105.216 0-133.222 42.478-153.668 73.506l-2.798 4.232c-32.648 48.964-83.046 182.904-83.558 184.252-2.492 6.656-8.858 11.076-15.974 11.076-9.404 0-17.066 7.662-17.066 17.066v68.266c0 4.626 1.844 8.824 4.846 11.896 6.196-13.91 18.842-26.42 40.090-28.536l58.402-43.794c4.558-33.244 32.838-59.032 67.33-59.032h34.134c37.648 0 68.266 30.618 68.266 68.266 0-37.648 30.618-68.266 68.266-68.266h34.134c34.474 0 62.788 25.788 67.328 59.050l62.378 46.762c7.544 5.65 9.080 16.35 3.414 23.894-5.65 7.544-16.35 9.096-23.894 3.414l-43.502-32.632c-6.502 20.804-25.72 36.044-48.658 36.044h-68.266c-28.228 0-51.2-22.972-51.2-51.2 0 28.228-22.972 51.2-51.2 51.2h-68.266c-22.92 0-42.138-15.24-48.656-36.044l-32.564 24.422c13.432 32.46 25.6 80.47 29.048 114.176 53.794 0.956 209.426 7.526 278.664 50.74 15.702-60.62 66.1-111.634 68.642-114.16 6.672-6.672 17.46-6.672 24.132 0 6.672 6.674 6.672 17.46 0 24.132-0.632 0.632-63.266 63.966-63.266 124.468 0 7.662-5.12 14.404-12.51 16.452-7.356 2.048-15.258-1.092-19.182-7.662-24.85-41.386-186.044-59.99-292.574-59.99-9.42 0-17.066-7.646-17.066-17.066 0-27.7-13.090-83.030-27.016-117.078-5.444 3.276-6.98 9.386-7.116 14.678 0 9.42-7.646 17.066-17.066 17.066-28.228 0-51.2-22.972-51.2-51.2v-68.266c-0.004-23.978 16.568-44.152 38.856-49.698zM546.134 533.334c0 9.404 7.646 17.066 17.066 17.066h68.266c9.42 0 17.066-7.662 17.066-17.066v-17.066c0-18.824-15.308-34.134-34.134-34.134h-34.134c-18.824 0-34.134 15.308-34.134 34.134v17.066zM375.466 533.334c0 9.404 7.662 17.066 17.066 17.066h68.268c9.404 0 17.066-7.662 17.066-17.066v-17.066c0-18.824-15.308-34.134-34.134-34.134h-34.132c-18.824 0-34.134 15.308-34.134 34.134v17.066zM597.316 345.548c0.018 9.404-7.594 17.066-16.998 17.118-0.324 0-30.84 0.342-60.69 15.274-4.796 2.39-10.462 2.39-15.258 0-29.85-14.934-60.382-15.274-60.638-15.274-9.42 0-17.066-7.646-17.066-17.066s7.646-17.066 17.066-17.066c1.45 0 33.69 0.188 68.266 15.308 34.56-15.12 66.816-15.308 68.266-15.308 9.406 0 17.018 7.612 17.052 17.014zM631.416 140.1c-6.382-0.034-12.236-3.618-15.156-9.318l-17.066-33.416c-4.284-8.396-0.938-18.688 7.442-22.972 2.474-1.262 5.138-1.86 7.748-1.86 6.212 0 12.202 3.396 15.224 9.302l12.306 24.132c93.286-0.256 168.414-7.236 223.47-20.754 9.182-2.27 18.398 3.344 20.634 12.492 2.252 9.164-3.328 18.398-12.492 20.65-59.77 14.696-140.836 22.342-242.11 21.744zM494.934 123.734v-34.134c0-9.42 7.646-17.066 17.066-17.066s17.066 7.646 17.066 17.066v34.134c0 9.42-7.646 17.066-17.066 17.066s-17.066-7.646-17.066-17.066zM494.934 311.466c-9.42 0-17.066-7.646-17.066-17.066s7.646-17.066 17.066-17.066h34.134c9.438 0 17.066 7.646 17.066 17.066s-7.628 17.066-17.066 17.066h-34.134z" />
<glyph unicode="&#xe918;" glyph-name="science" d="M320.048 413.955h20.903v-73.353c0-9.024 7.316-16.34 16.34-16.34h65.797c9.024 0 16.34 7.316 16.34 16.34v73.353h32.681v-73.353c0-9.024 7.316-16.34 16.34-16.34h65.8c9.024 0 16.34 7.316 16.34 16.34v73.353h20.903c9.024 0 16.34 7.316 16.34 16.34s-7.316 16.34-16.34 16.34h-9.789v228.505h44.679l142.643-81.295c26.474-15.231 48.84-53.906 48.84-84.449v-110.514c0-9.024 7.316-16.34 16.34-16.34s16.34 7.316 16.34 16.34v110.514c0 42.195-28.65 91.733-65.281 112.81l-146.463 83.471c-2.464 1.405-5.253 2.144-8.090 2.144h-49.013v83.552c0 9.024-7.316 16.34-16.34 16.34h-27.526v135.946c0 9.024-7.316 16.34-16.34 16.34h-131.451c-9.024 0-16.34-7.316-16.34-16.34v-135.946h-27.526c-9.024 0-16.34-7.316-16.34-16.34v-344.737h-9.789c-9.024 0-16.34-7.316-16.34-16.34s7.314-16.34 16.34-16.34zM406.746 356.942h-33.117v57.013h33.117v-57.013zM537.907 356.942h-33.119v57.013h33.119v-57.013zM406.382 927.319h98.77v-119.605h-98.77v119.605zM362.518 775.033h186.503v-328.397h-186.503v328.397zM834.207 349.862c-45.531 0-82.576-37.043-82.576-82.576 0-39.94 28.504-73.34 66.235-80.946v-217.659h-669.522l40.071 93.417c11.665 27.195 46.522 50.169 76.112 50.169h503.444c9.024 0 16.34 7.316 16.34 16.34s-7.316 16.34-16.34 16.34h-49.021v354.138c0 5.883-3.164 11.312-8.281 14.214l-71.891 40.762c-7.852 4.449-17.822 1.695-22.275-6.155-4.451-7.85-1.695-17.822 6.155-22.275l63.61-36.067v-205.942h-366.219c-9.024 0-16.34-7.316-16.34-16.34v-65.362c0-9.024 7.316-16.34 16.34-16.34h317.203c9.024 0 16.34 7.316 16.34 16.34s-7.316 16.34-16.34 16.34h-300.862v32.681h349.883v-105.997h-421.742c-42.69 0-89.315-30.733-106.145-69.968l-49.843-116.198c-2.166-5.048-1.649-10.848 1.375-15.434s8.148-7.347 13.643-7.347h710.652c9.024 0 16.34 7.316 16.34 16.34v233.999c37.731 7.606 66.235 41.006 66.235 80.946-0.002 45.531-37.047 82.576-82.58 82.576zM834.207 217.389c-27.511 0-49.895 22.382-49.895 49.895 0 27.511 22.382 49.895 49.895 49.895s49.895-22.382 49.895-49.895c0.002-27.511-22.382-49.895-49.895-49.895z" />
<glyph unicode="&#xe919;" glyph-name="science-1" d="M822.481 546.459v250.424c24.474 2.719 43.572 23.52 43.572 48.709 0 27.030-21.988 49.018-49.018 49.018h-217.858c-27.030 0-49.018-21.988-49.018-49.018 0-25.187 19.097-45.99 43.572-48.709v-250.428c-49.399-19.198-93.357-50.685-127.678-91.572-5.804-6.913-4.902-17.217 2.009-23.019 3.063-2.571 6.791-3.826 10.496-3.826 4.662 0 9.292 1.985 12.523 5.834 33.051 39.374 76.046 69.022 124.336 85.74 6.582 2.279 10.993 8.477 10.993 15.44v261.522h92.59c9.024 0 16.339 7.316 16.339 16.339s-7.316 16.339-16.339 16.339h-119.822c-9.011 0-16.339 7.329-16.339 16.339s7.329 16.339 16.339 16.339h217.858c9.011 0 16.339-7.329 16.339-16.339s-7.329-16.339-16.339-16.339h-32.679c-9.024 0-16.339-7.316-16.339-16.339s7.316-16.339 16.339-16.339h5.446v-261.519c0-6.963 4.414-13.163 10.993-15.44 113.96-39.454 190.526-147.028 190.526-267.685 0-156.165-127.051-283.216-283.216-283.216-36.816 0-72.654 6.976-106.515 20.731-8.357 3.399-17.891-0.627-21.287-8.987s0.63-17.891 8.989-21.287c37.788-15.35 77.76-23.134 118.813-23.134 174.184 0 315.895 141.71 315.895 315.895 0 130.652-80.503 247.555-201.519 294.527zM846.212 194.467c0-9.024-7.315-16.339-16.339-16.339s-16.339 7.315-16.339 16.339c0 9.024 7.315 16.339 16.339 16.339s16.339-7.315 16.339-16.339zM780.855 129.11c0-9.024-7.315-16.339-16.339-16.339s-16.339 7.315-16.339 16.339c0 9.024 7.315 16.339 16.339 16.339s16.339-7.315 16.339-16.339zM615.82 54.537c-8.168 3.823-17.897 0.305-21.727-7.867-3.828-8.172-0.305-17.899 7.867-21.727 33.367-15.629 69.079-23.555 106.145-23.555 138.146 0 250.537 112.391 250.537 250.537 0 44.036-11.597 87.357-33.537 125.282-3.329 5.754-9.806 8.923-16.394 8l-5.948-0.828c-0.745-0.102-1.486-0.259-2.209-0.464-24.701-7.011-38.023-17.71-48.726-26.306-11.858-9.525-19.694-15.817-42.299-15.817-19.304 0-28.014 7.483-40.071 17.84-13.344 11.464-29.951 25.731-61.364 25.731-31.411 0-48.016-14.268-61.36-25.733-12.054-10.357-20.762-17.838-40.062-17.838-22.603 0-30.435 6.292-42.293 15.817-10.703 8.597-24.023 19.296-48.72 26.306-0.725 0.207-1.464 0.362-2.211 0.464l-5.948 0.828c-6.575 0.922-13.037-2.231-16.372-7.963-0.142-0.242-0.279-0.488-0.429-0.767-4.497-7.823-1.8-17.812 6.024-22.309 3.399-1.952 7.202-2.549 10.791-1.956l0.272-0.039c17.625-5.181 26.62-12.405 36.13-20.045 14.087-11.316 28.655-23.017 62.756-23.017 31.411 0 48.016 14.268 61.36 25.733 12.054 10.357 20.762 17.838 40.062 17.838 19.304 0 28.014-7.483 40.071-17.84 13.344-11.464 29.951-25.731 61.364-25.731 34.104 0 48.672 11.701 62.763 23.015 8.394 6.743 16.383 13.159 30.261 18.137 15.348-30.328 23.413-64.081 23.413-98.339 0-120.127-97.731-217.858-217.858-217.858-32.241 0.004-63.29 6.891-92.287 20.472zM394.389 537.799v324.441c24.474 2.719 43.572 23.52 43.572 48.709 0 27.030-21.988 49.018-49.018 49.018h-217.858c-27.030 0-49.018-21.988-49.018-49.018 0-25.187 19.097-45.99 43.572-48.709v-261.831c0-9.024 7.316-16.339 16.339-16.339s16.339 7.316 16.339 16.339v261.522h92.59c9.024 0 16.339 7.316 16.339 16.339s-7.316 16.339-16.339 16.339h-119.822c-9.011 0-16.339 7.329-16.339 16.339s7.329 16.339 16.339 16.339h217.858c9.011 0 16.339-7.329 16.339-16.339s-7.329-16.339-16.339-16.339h-32.679c-9.024 0-16.339-7.316-16.339-16.339s7.316-16.339 16.339-16.339h5.446v-326.879c0-1.817 0.303-3.623 0.898-5.34l158.795-459.145c9.59-27.729 7.427-53.452-6.089-72.429-13.518-18.975-37.119-29.428-66.458-29.428h-337.681c-29.339 0-52.942 10.451-66.46 29.428-13.516 18.978-15.679 44.7-6.089 72.427l158.795 459.143c2.95 8.529-1.573 17.834-10.1 20.784-8.527 2.948-17.834-1.573-20.784-10.1l-158.797-459.143c-13.141-37.992-9.462-74.242 10.357-102.067s52.874-43.149 93.076-43.149h337.681c40.201 0 73.257 15.324 93.076 43.149s23.498 64.074 10.357 102.067l-157.897 456.551zM140.85 200.127c-4.161 3.226-9.627 4.255-14.671 2.752-5.048-1.501-9.065-5.344-10.786-10.322l-45.885-132.674c-6.039-17.464-5.392-32.659 1.823-42.787s21.363-15.708 39.842-15.708h337.681c18.477 0 32.626 5.579 39.84 15.708 7.218 10.128 7.865 25.326 1.823 42.787l-45.888 132.678c-1.721 4.978-5.736 8.819-10.784 10.32-5.048 1.503-10.512 0.477-14.671-2.752-8.913-6.913-17.35-12.202-37.74-12.202-19.302 0-28.014 7.483-40.071 17.84-13.344 11.464-29.951 25.731-61.364 25.731-31.411 0-48.016-14.268-61.36-25.733-12.054-10.357-20.762-17.838-40.064-17.838-20.383 0.004-28.818 5.29-37.727 12.2zM239.938 180.984c12.054 10.357 20.762 17.838 40.062 17.838 19.304 0 28.014-7.483 40.071-17.84 13.344-11.464 29.951-25.731 61.364-25.731 17.080 0 29.376 3.059 38.975 7.361l39.223-113.411c2.318-6.704 2.447-11.093 2.218-12.987-1.715-0.834-5.904-2.148-12.997-2.148h-337.681c-7.093 0-11.283 1.314-12.997 2.148-0.229 1.893-0.1 6.283 2.218 12.987l39.221 113.406c9.594-4.303 21.888-7.359 38.964-7.359 31.413 0.004 48.018 14.272 61.36 25.736z" />
<glyph unicode="&#xe91a;" glyph-name="signs" d="M801.081 843.144c-81.843 79.136-189.717 120.369-303.839 116.621-207.835-7.289-379.434-168.684-399.426-375.269-3.749-39.776-2.083-79.552 5.415-118.703 0.208-1.666 1.041-6.456 2.916-13.953 6.456-28.114 15.619-55.603 27.697-81.843 42.275-99.544 134.322-252.817 333.202-417.753 13.12-10.829 28.947-16.244 44.982-16.244s31.862 5.415 44.982 16.244c198.88 165.143 290.927 318.208 333.202 417.753 12.079 26.24 21.45 53.729 27.697 81.843 1.874 7.497 2.707 12.287 2.916 13.953 4.79 25.615 7.289 52.063 7.289 78.094 0 113.914-45.191 220.122-127.033 299.257zM846.897 479.12c0-0.625-0.208-1.041-0.208-1.666-0.208-1.041-0.833-3.957-1.874-8.538 0-0.208 0-0.208 0-0.417-5.206-23.116-12.912-46.024-22.908-67.682-0.208-0.417-0.417-0.833-0.417-1.041-38.735-91.422-123.701-232.617-309.254-387.556-185.552 154.731-270.519 296.134-309.254 387.556-0.208 0.417-0.417 0.833-0.417 1.041-9.996 21.658-17.701 44.358-22.908 67.682 0 0.208 0 0.208 0 0.417-1.041 4.582-1.666 7.497-1.874 8.538 0 0.625-0.208 1.041-0.208 1.666-6.664 32.279-8.33 65.391-5.206 98.295 16.244 169.517 157.022 301.757 327.371 307.588 93.505 3.332 182.012-30.613 249.277-95.587s104.126-152.024 104.126-245.529c0-21.658-2.083-43.525-6.248-64.766zM512.028 761.301c-122.035 0-221.58-99.336-221.58-221.58s99.544-221.58 221.58-221.58c20.617 0 37.485 16.868 37.485 37.485s-16.868 37.485-37.485 37.485c-80.802 0-146.609 65.807-146.609 146.609s65.807 146.609 146.609 146.609 146.609-65.807 146.609-146.609c0-34.986-12.495-68.723-35.195-95.171-13.536-15.827-11.662-39.36 4.165-52.896s39.36-11.662 52.896 4.165c34.362 39.984 53.104 91.214 53.104 143.902 0 122.035-99.336 221.58-221.58 221.58z" />
<glyph unicode="&#xe91b;" glyph-name="technology" d="M253.776 536.238h14.698v-120.767c0-36.4 29.613-66.011 66.011-66.011h58.385c9.024 0 16.34 7.316 16.34 16.34v121.416c0 9.024-7.316 16.34-16.34 16.34s-16.34-7.316-16.34-16.34v-105.075h-42.045c-18.378 0-33.33 14.953-33.33 33.33v120.767h154.922l344.123-98.186c1.475-0.42 2.983-0.627 4.482-0.627 3.512 0 6.976 1.133 9.843 3.296 4.092 3.087 6.497 7.917 6.497 13.044v367.095c0 5.127-2.405 9.955-6.497 13.044-4.094 3.087-9.397 4.081-14.325 2.669l-344.123-98.184h-202.301c-28.010 0-50.797-22.787-50.797-50.797v-100.552c0-28.014 22.787-50.801 50.797-50.801zM788.341 475.421l-313.64 89.489v144.807l313.64 89.489v-323.784zM235.659 687.59c0 9.989 8.127 18.116 18.116 18.116h188.246v-136.787h-188.246c-9.989 0-18.116 8.127-18.116 18.116v100.555zM985.129 924.347h-946.259c-21.434 0-38.871-17.436-38.871-38.871v-717.247c0-21.432 17.436-38.871 38.871-38.871h356.89v-125.028h-154.121c-9.024 0-16.34-7.316-16.34-16.34s7.316-16.34 16.34-16.34h540.72c9.024 0 16.34 7.316 16.34 16.34s-7.316 16.34-16.34 16.34h-154.121v125.030h356.89c21.432 0 38.871 17.436 38.871 38.871v717.244c0 21.434-17.436 38.871-38.871 38.871zM595.558 4.333h-167.117v125.028h167.117v-125.028zM991.319 168.232c0-3.355-2.835-6.19-6.19-6.19h-946.259c-3.355 0-6.19 2.835-6.19 6.19v717.244c0 3.355 2.835 6.19 6.19 6.19h946.259c3.355 0 6.19-2.835 6.19-6.19v-717.244zM940.069 294.995h-856.138c-9.024 0-16.34-7.316-16.34-16.34s7.316-16.34 16.34-16.34h856.138c9.024 0 16.34 7.316 16.34 16.34s-7.316 16.34-16.34 16.34z" />
<glyph unicode="&#xe91c;" glyph-name="technology-1" d="M809.283 325.668c-20.964 21.828-46.25 33.499-73.049 33.499-26.583 0-52.085-11.454-73.914-33.283l-68.295-68.078c-5.619 3.026-11.238 5.835-16.641 8.645-7.78 3.89-15.129 7.564-21.396 11.454-63.972 40.631-122.109 93.581-177.869 162.092-27.015 34.147-45.17 62.892-58.353 92.068 17.722 16.209 34.147 33.067 50.14 49.276 6.051 6.051 12.103 12.319 18.154 18.37 45.386 45.386 45.386 104.171 0 149.557l-59.001 59.001c-6.7 6.7-13.616 13.616-20.099 20.532-12.967 13.4-26.583 27.231-40.631 40.199-20.964 20.748-46.034 31.77-72.401 31.77s-51.869-11.022-73.482-31.77c-0.216-0.216-0.216-0.216-0.432-0.432l-73.482-74.13c-27.664-27.664-43.441-61.379-46.899-100.497-5.187-63.108 13.4-121.893 27.664-160.363 35.012-94.445 87.313-181.975 165.333-275.772 94.662-113.032 208.558-202.29 338.664-265.182 49.708-23.557 116.058-51.437 190.188-56.192 4.539-0.216 9.293-0.432 13.616-0.432 49.924 0 91.852 17.938 124.703 53.598 0.216 0.432 0.648 0.648 0.864 1.081 11.238 13.616 24.206 25.935 37.821 39.118 9.293 8.861 18.803 18.154 28.096 27.88 21.396 22.261 32.634 48.195 32.634 74.778 0 26.799-11.454 52.518-33.283 74.13l-118.651 119.083zM886.654 98.092c-0.216 0-0.216-0.216 0 0-8.429-9.077-17.074-17.29-26.367-26.367-14.048-13.4-28.312-27.448-41.712-43.224-21.828-23.341-47.547-34.363-81.262-34.363-3.242 0-6.7 0-9.942 0.216-64.188 4.106-123.838 29.176-168.575 50.573-122.325 59.217-229.738 143.289-318.996 249.837-73.698 88.826-122.974 170.953-155.608 259.131-20.099 53.814-27.448 95.742-24.206 135.293 2.161 25.286 11.887 46.25 29.825 64.188l73.698 73.698c10.59 9.942 21.828 15.345 32.851 15.345 13.616 0 24.638-8.213 31.554-15.129 0.216-0.216 0.432-0.432 0.648-0.648 13.183-12.319 25.719-25.070 38.902-38.686 6.7-6.916 13.616-13.832 20.532-20.964l59.001-59.001c22.909-22.909 22.909-44.089 0-66.998-6.268-6.268-12.319-12.535-18.587-18.587-18.154-18.587-35.444-35.876-54.247-52.734-0.432-0.432-0.864-0.648-1.081-1.081-18.587-18.587-15.129-36.741-11.238-49.060 0.216-0.648 0.432-1.297 0.648-1.945 15.345-37.173 36.957-72.185 69.807-113.896l0.216-0.216c59.65-73.482 122.541-130.754 191.917-174.627 8.861-5.619 17.938-10.158 26.583-14.48 7.78-3.89 15.129-7.564 21.396-11.454 0.864-0.432 1.729-1.081 2.593-1.513 7.348-3.674 14.264-5.403 21.396-5.403 17.938 0 29.176 11.238 32.851 14.912l73.914 73.914c7.348 7.348 19.019 16.209 32.634 16.209 13.4 0 24.422-8.429 31.122-15.777 0.216-0.216 0.216-0.216 0.432-0.432l119.083-119.083c22.261-22.044 22.261-44.737 0.216-67.646zM553.394 716.417c56.624-9.509 108.061-36.309 149.124-77.372s67.646-92.5 77.372-149.124c2.377-14.264 14.696-24.206 28.744-24.206 1.729 0 3.242 0.216 4.971 0.432 15.993 2.593 26.583 17.722 23.99 33.715-11.671 68.511-44.089 130.97-93.581 180.462s-111.951 81.91-180.462 93.581c-15.993 2.593-30.905-7.997-33.715-23.773s7.564-31.122 23.557-33.715zM1022.811 508.292c-19.235 112.816-72.401 215.474-154.095 297.168s-184.352 134.86-297.168 154.095c-15.777 2.81-30.689-7.997-33.499-23.773-2.593-15.993 7.997-30.905 23.99-33.715 100.713-17.074 192.565-64.837 265.614-137.67 73.049-73.049 120.596-164.901 137.67-265.614 2.377-14.264 14.696-24.206 28.744-24.206 1.729 0 3.242 0.216 4.971 0.432 15.777 2.377 26.583 17.506 23.773 33.283z" />
<glyph unicode="&#xe91d;" d="M1006.342 112.552h-988.686c-9.75 0-17.656 7.906-17.656 17.656v635.585c0 9.75 7.906 17.656 17.656 17.656h988.688c9.75 0 17.656-7.906 17.656-17.656v-635.585c-0.002-9.75-7.908-17.656-17.658-17.656z" />
<glyph unicode="&#xe91e;" d="M1023.998 765.792c0 9.75-7.906 17.656-17.656 17.656h-78.99l-327.079-214.294v214.294h-176.552v-214.294l-327.077 214.294h-78.988c-9.75 0-17.656-7.906-17.656-17.656v-45.662l280.617-183.854h-280.617v-176.552h280.617l-280.617-183.856v-45.662c0-9.75 7.906-17.656 17.656-17.656h78.99l327.079 214.294v-214.294h176.552v214.294l327.079-214.294h78.99c9.75 0 17.656 7.906 17.656 17.656v45.662l-280.617 183.854h280.613v176.552h-280.617l280.617 183.856v45.662z" />
<glyph unicode="&#xe91f;" d="M1023.998 500.965h-459.033v282.483h-105.932v-282.483h-459.033v-105.93h459.033v-282.483h105.932v282.483h459.033z" />
<glyph unicode="&#xe920;" d="M357.895 359.725l-357.395-231.994c1.25-8.526 8.28-15.18 17.154-15.18h24.318l380.779 247.172h-64.856z" />
<glyph unicode="&#xe921;" d="M692.775 359.725h-64.856l380.225-246.808c8.862 0.944 15.856 8.18 15.856 17.292v14.516l-331.225 215z" />
<glyph unicode="&#xe922;" d="M0 746.302l323.557-210.028h64.856l-378.127 245.452c-6.040-2.806-10.286-8.836-10.286-15.934v-19.49z" />
<glyph unicode="&#xe923;" d="M665.131 536.275l358.253 232.554c-1.488 8.244-8.368 14.618-17.042 14.618h-25.294l-380.773-247.172h64.856z" />
<glyph unicode="&#xe924;" glyph-name="left3" d="M411.381 720.176c25.608 10.739 36.347 41.303 24.782 66.085l-40.477 85.085c-11.565 23.948-39.651 34.695-64.433 23.948-70.216-29.738-130.518-68.563-178.43-115.649-58.651-55.338-98.302-118.945-119.78-189.161-21.478-71.050-33.043-167.691-33.043-290.775v-253.602c0-27.26 22.304-49.564 49.564-49.564h324.644c27.26 0 49.564 22.304 49.564 49.564v324.644c0 27.268-22.304 49.564-49.564 49.564h-155.3c1.652 83.441 21.478 150.344 57.825 200.742 29.738 40.461 74.346 73.503 134.649 99.12zM994.584 720.176c25.608 10.739 36.339 41.303 24.782 66.085l-40.477 84.25c-11.565 23.956-39.651 34.695-64.433 23.956-69.39-29.738-128.875-68.563-177.604-114.823-58.659-56.173-99.128-119.78-120.614-189.995-21.478-69.381-32.208-166.039-32.208-289.949v-253.602c0-27.26 22.304-49.564 49.564-49.564h324.644c27.26 0 49.564 22.304 49.564 49.564v324.644c0 27.268-22.304 49.564-49.564 49.564h-156.127c1.652 83.441 21.486 150.344 57.825 200.742 29.738 40.469 74.346 73.512 134.649 99.128z" />
<glyph unicode="&#xe925;" glyph-name="left" horiz-adv-x="1088" d="M676.619 720.176c-25.608 10.739-36.347 41.303-24.782 66.085l40.477 85.085c11.565 23.948 39.651 34.695 64.433 23.948 70.216-29.738 130.518-68.563 178.43-115.649 58.651-55.338 98.302-118.945 119.78-189.161 21.478-71.050 33.043-167.691 33.043-290.775v-253.602c0-27.26-22.304-49.564-49.564-49.564h-324.644c-27.26 0-49.564 22.304-49.564 49.564v324.644c0 27.268 22.304 49.564 49.564 49.564h155.3c-1.652 83.441-21.478 150.344-57.825 200.742-29.738 40.461-74.346 73.503-134.649 99.12zM93.416 720.176c-25.608 10.739-36.339 41.303-24.782 66.085l40.477 84.25c11.565 23.956 39.651 34.695 64.433 23.956 69.39-29.738 128.875-68.563 177.604-114.823 58.659-56.173 99.128-119.78 120.614-189.995 21.478-69.381 32.208-166.039 32.208-289.949v-253.602c0-27.26-22.304-49.564-49.564-49.564h-324.644c-27.26 0-49.564 22.304-49.564 49.564v324.644c0 27.268 22.304 49.564 49.564 49.564h156.127c-1.652 83.441-21.486 150.344-57.825 200.742-29.738 40.469-74.346 73.512-134.649 99.128z" />
<glyph unicode="&#xe926;" glyph-name="left-arrow-angle" d="M695.382 960l-512.005-512 512.005-512 145.242 145.252-366.753 366.748 366.753 366.748z" />
<glyph unicode="&#xe927;" glyph-name="left-arrow-angle2" d="M328.618-64l512.005 512-512.005 512-145.242-145.252 366.753-366.748-366.753-366.748z" />
<glyph unicode="&#xe928;" glyph-name="note" d="M1003.602 680.116h-660.978c-11.266 0-20.398-9.132-20.398-20.398v-38.47h-194.42c-11.266 0-20.398-9.132-20.398-20.398s9.132-20.398 20.398-20.398h194.42v-264.904h-116.202c-11.266 0-20.398-9.132-20.398-20.398s9.132-20.398 20.398-20.398h116.202v-38.47c0-11.266 9.132-20.398 20.398-20.398h660.978c11.266 0 20.398 9.132 20.398 20.398v423.436c0 11.266-9.132 20.398-20.398 20.398zM953.282 639.32l-280.14-229.97-278.862 229.97h559.002zM983.204 256.678h-620.18v355.54l297.112-245.020c3.768-3.106 8.372-4.662 12.978-4.662 4.59 0 9.182 1.544 12.942 4.632l297.148 243.932v-354.422zM239.346 470.464h-218.948c-11.266 0-20.398-9.132-20.398-20.398s9.132-20.398 20.398-20.398h218.948c11.266 0 20.398 9.132 20.398 20.398 0.002 11.266-9.132 20.398-20.398 20.398zM138.71 315.546h-10.902c-11.266 0-20.398-9.132-20.398-20.398s9.132-20.398 20.398-20.398h10.902c11.266 0 20.398 9.132 20.398 20.398s-9.132 20.398-20.398 20.398z" />
<glyph unicode="&#xe929;" glyph-name="world" d="M937.265 732.879l-15.32-4.857-81.585-7.269-23.045-36.8-16.721 5.313-64.929 58.54-9.42 30.444-12.614 32.464-40.809 36.604-48.143 9.42-1.108-22.034 47.165-46.024 23.077-27.184-25.946-13.559-21.121 6.226-31.65 13.201 1.076 25.522-41.526 17.080-13.788-60.007-41.852-9.485 4.14-33.475 54.531-10.496 9.42 53.488 45.013-6.649 20.926-12.256h33.573l22.979-46.024 60.92-61.8-4.465-24.022-49.12 6.258-84.877-42.862-61.115-73.306-7.953-32.464h-21.936l-40.874 18.84-39.701-18.84 9.876-41.884 17.275 19.915 30.378 0.945-2.119-37.614 25.163-7.366 25.131-28.227 41.037 11.539 46.871-7.399 54.433-14.635 27.184-3.194 46.089-52.315 88.951-52.315-57.53-109.91-60.724-28.227-23.045-62.81-87.876-58.671-9.355-33.833c224.644 54.107 391.758 255.902 391.758 497.169-0.065 105.379-32.008 203.457-86.702 284.846zM570.899 180.429l-37.289 69.134 34.225 71.318-34.225 10.235-38.429 38.592-85.138 19.101-28.26 59.127v-35.105h-12.451l-73.371 99.48v81.715l-53.782 87.452-85.399-15.222h-57.53l-28.944 18.97 36.93 29.27-36.832-8.507c-44.394-75.816-70.275-163.789-70.275-258.021 0-282.695 229.174-511.967 511.902-511.967 21.773 0 43.123 1.923 64.244 4.465l-5.346 62.028c0 0 23.501 92.113 23.501 95.242-0.033 3.162-23.533 82.693-23.533 82.693zM190.354 794.907l90.94 12.679 41.917 22.979 47.165-13.592 75.359 4.172 25.815 40.581 37.647-6.193 91.429 8.572 25.196 27.771 35.528 23.729 50.261-7.562 18.318 2.771c-66.2 31.161-139.865 49.186-217.929 49.186-158.9 0-300.981-72.426-394.789-186.149h0.261l72.882 21.056zM533.643 909.087l52.282 28.781 33.573-19.394-48.599-36.995-46.415-4.661-20.893 13.559 30.052 18.709zM378.785 904.882l23.077-9.615 30.215 9.615 16.46-28.52-69.753-18.318-33.54 19.622c-0.033 0 32.79 21.121 33.54 27.217z" />
</font>
</defs>
</svg>
